<svg width="55" height="89" viewBox="0 0 55 89" fill="none" xmlns="http://www.w3.org/2000/svg">
<path d="M0.420437 1.51468C2.0511 1.16637 3.58807 0.542052 5.18895 0.409056C7.49801 0.240876 9.86953 0.256701 12.1815 0.70316C26.4534 3.34866 38.6195 10.0949 46.7752 21.9987C55.0246 34.1785 56.3824 47.8769 50.3801 61.7137C47.3946 68.6781 42.9571 74.6989 37.5616 80.0189C36.5498 80.9779 35.6302 81.9057 34.0365 83.5753C37.1177 83.8633 39.4594 84.0944 41.8934 84.2942C41.8948 84.6015 41.9885 84.8776 42.0212 85.2769C41.4067 85.5881 40.8547 86.0833 40.1777 86.2105C36.8554 87.0304 33.5018 87.7583 30.1482 88.4863C27.9328 88.9305 25.6564 89.498 23.9532 87.511C22.1265 85.4634 22.8232 82.9697 23.8605 80.8733C25.3561 78.0057 27.191 75.2283 29.0571 72.5428C29.4856 71.9869 30.6253 72.0105 31.4555 71.7286C31.7366 72.5567 32.3568 73.4747 32.1752 74.152C31.5381 76.2151 30.5306 78.0962 29.5856 80.1612C29.8936 80.1593 30.1405 80.2806 30.2015 80.1573C48.06 66.0923 55.1476 47.27 45.9056 27.0136C45.4698 26.0329 44.9418 25.0835 44.2293 24.1967C34.931 11.6547 22.6386 4.23317 7.01563 2.45668C4.98187 2.2236 2.82751 2.54447 0.702939 2.65003C0.578021 2.28202 0.545356 1.88269 0.420437 1.51468Z" fill="#0F1111"/>
</svg>