<svg width="27" height="23" viewBox="0 0 27 23" fill="none" xmlns="http://www.w3.org/2000/svg">
<path d="M22.1618 1.43014C22.1618 1.43014 22.2799 4.75374 20.689 6.52824C20.5048 6.73364 19.3579 5.45911 19.3579 5.45911V6.09622C19.3579 6.09622 18.6943 5.99014 18.389 6.64847L17.786 6.13865C17.786 6.13865 18.3382 7.77417 18.1897 8.11425C18.0409 8.45402 14.2069 7.82736 12.9856 6.60603C12.8579 6.47873 12.1996 8.90018 10.2452 10.0898C10.2452 10.0898 12.1784 9.6649 13.2192 10.9606C13.2192 10.9606 15.3433 9.1763 17.0852 11.4492C17.0852 11.4492 18.7847 9.32512 21.3338 11.1307C21.3338 11.1307 20.6964 8.64527 23.6703 7.60444C23.6703 7.60444 22.7992 4.97052 25.3271 3.67478C25.3271 3.67478 24.9233 1.40185 26.644 2.29451e-05C26.644 2.29451e-05 24.5621 1.24595 22.1618 1.43014Z" fill="#263238"/>
<path d="M8.50479 19.0124C8.50479 19.0124 7.23518 20.4724 5.85396 20.5948C5.69407 20.6089 5.71283 19.6117 5.71283 19.6117L5.45977 19.8826C5.45977 19.8826 5.21993 19.5739 4.8285 19.7326L4.77469 19.2763C4.77469 19.2763 4.35989 20.191 4.16187 20.2765C3.96355 20.362 2.58263 18.573 2.5485 17.5685C2.54481 17.4636 1.30318 18.2317 6.10352e-05 17.9612C6.10352e-05 17.9612 0.99047 18.5481 0.918519 19.5124C0.918519 19.5124 2.53005 19.5976 2.36801 21.2556C2.36801 21.2556 3.93402 21.0274 4.30055 22.8074C4.30055 22.8074 5.01668 21.4978 6.69432 22.2364C6.69432 22.2364 7.37017 20.771 8.95925 21.2239C8.95925 21.2239 9.69046 20.0973 10.9785 20.1846C10.9785 20.1846 9.59821 19.8872 8.50479 19.0124Z" fill="#263238"/>
</svg>