<svg width="69" height="41" viewBox="0 0 69 41" fill="none" xmlns="http://www.w3.org/2000/svg">
<path d="M24.551 1.53799C24.551 1.53799 23.924 7.79899 20.489 10.719C20.092 11.057 18.266 8.375 18.266 8.375L18.103 9.57C18.103 9.57 16.886 9.20199 16.145 10.358L15.145 9.248C15.145 9.248 15.763 12.455 15.397 13.054C15.031 13.653 8.004 11.5 6.026 8.89799C5.82 8.627 3.967 12.998 0 14.729C0 14.729 3.732 14.426 5.353 17.121C5.353 17.121 9.791 14.318 12.476 19.024C12.476 19.024 16.204 15.476 20.522 19.511C20.522 19.511 19.962 14.689 25.802 13.497C25.802 13.497 24.842 8.33699 29.911 6.55299C29.911 6.55299 29.735 2.189 33.318 0C33.318 0 29.098 1.80499 24.551 1.53799Z" fill="#263238"/>
<path d="M64.241 34.673C64.241 34.673 60.943 36.872 58.148 36.368C57.824 36.31 58.4 34.349 58.4 34.349L57.754 34.748C57.754 34.748 57.447 34.008 56.587 34.11L56.727 33.179C56.727 33.179 55.413 34.763 54.975 34.824C54.537 34.886 52.774 30.604 53.249 28.601C53.298 28.392 50.43 29.239 48 28C48 28 49.64 29.695 48.977 31.562C48.977 31.562 52.116 32.601 50.9 35.79C50.9 35.79 54.118 36.185 53.881 39.901C53.881 39.901 56.004 37.7 58.92 40.065C58.92 40.065 61.047 37.534 63.943 39.287C63.943 39.287 65.996 37.456 68.495 38.324C68.496 38.326 65.93 36.993 64.241 34.673Z" fill="#263238"/>
</svg>
