<svg width="39" height="40" viewBox="0 0 39 40" fill="none" xmlns="http://www.w3.org/2000/svg">
<path d="M37.371 11.4198H27.212C27.212 11.4198 28.2193 8.66858 29.7695 8.66858C31.3197 8.66858 31.8053 10.5676 31.8053 10.5676C31.8053 10.5676 32.8512 9.53582 33.7104 9.53582C34.5695 9.53582 35.3166 10.8993 35.3166 10.8993C35.3166 10.8993 36.5305 10.1661 37.371 11.4198Z" fill="#EBEBEB"/>
<path d="M5.35013 8.78332H0.602539C0.602539 8.78332 1.66339 7.24638 2.49913 7.24638C3.33496 7.24638 3.58189 8.27106 3.58189 8.27106C3.58189 8.27106 4.17169 7.79292 4.71823 7.87828C5.26468 7.96364 5.35013 8.78332 5.35013 8.78332Z" fill="#EBEBEB"/>
<path d="M23.3245 1.53693H18.577C18.577 1.53693 19.6378 0 20.4736 0C21.3093 0 21.5563 1.02468 21.5563 1.02468C21.5563 1.02468 22.1461 0.546539 22.6927 0.631899C23.2391 0.717169 23.3245 1.53693 23.3245 1.53693Z" fill="#EBEBEB"/>
<path d="M12.6588 15.6621H7.91132C7.91132 15.6621 8.97217 14.1252 9.80791 14.1252C10.6437 14.1252 10.8907 15.1499 10.8907 15.1499C10.8907 15.1499 11.4805 14.6717 12.027 14.7571C12.5734 14.8424 12.6588 15.6621 12.6588 15.6621Z" fill="#EBEBEB"/>
<path d="M14.7849 5.03032H5.53754C5.53754 5.03032 6.80394 2.20311 8.15857 2.02638C9.51329 1.84965 10.1612 4.12717 10.1612 4.12717C10.1612 4.12717 11.0349 3.32222 11.7221 3.32222C12.4093 3.32222 12.9394 4.38245 12.9394 4.38245C12.9394 4.38245 14.3137 3.65594 14.7849 5.03032Z" fill="#EBEBEB"/>
<path d="M30.7524 18.7145H21.5051C21.5051 18.7145 22.7715 15.8873 24.1261 15.7106C25.4808 15.5338 26.1287 17.8114 26.1287 17.8114C26.1287 17.8114 27.0024 17.0064 27.6896 17.0064C28.3768 17.0064 28.9069 18.0666 28.9069 18.0666C28.9069 18.0666 30.2812 17.3401 30.7524 18.7145Z" fill="#EBEBEB"/>
<path d="M38.9213 19.4253C38.8551 20.2655 38.4325 25.3891 35.6167 24.9459C35.1439 26.6621 34.8697 28.659 35.1574 31.6317H29.0934C29.0934 31.6317 28.4588 27.679 30.4788 24.283C32.0223 21.6875 32.4809 19.9115 32.4809 19.4221C32.4809 18.9314 31.3363 17.4585 31.2143 15.592C31.0922 13.7326 31.6684 11.7234 31.7911 11.5956C31.9138 11.4684 32.4661 11.3329 32.3101 11.9463C32.2529 12.1685 32.1617 12.5347 32.073 12.9663C31.9182 13.7261 31.7743 14.6877 31.852 15.4173C31.9509 16.3384 32.3973 17.7758 32.8983 18.0842C33.0198 18.1587 33.1444 18.1676 33.2683 18.086C33.9023 17.6711 33.9986 14.8026 33.9511 11.8371C33.9324 10.7047 34.2087 8.78932 34.3005 8.60307C34.3956 8.40848 34.7681 8.4162 34.8664 8.60245C34.9557 8.77326 34.5831 14.2502 35.7322 14.2502C36.4933 14.2502 36.6263 12.6329 36.7528 12.5506C36.88 12.4678 37.0123 12.5199 37.0181 12.5262C37.2223 12.7658 38.1568 17.4521 36.8318 21.3573C36.7933 21.4716 36.7541 21.5846 36.7149 21.6964C36.7149 21.697 36.7149 21.697 36.7143 21.6977C36.4485 22.8936 36.3289 23.6804 36.6706 23.7504C37.5801 23.938 38.207 20.2563 38.3855 19.3655C38.4845 18.8691 38.9426 19.1568 38.9213 19.4253Z" fill="#C7C7C7"/>
<path d="M36.9152 18.6015C36.8601 19.2433 36.6906 20.1413 35.9185 20.2565C35.5843 20.3058 35.2799 20.154 35.1375 19.8432C34.9792 19.4983 35.0856 19.1147 35.1679 18.7648C35.2052 18.6059 35.2388 18.4426 35.2736 18.2794C35.3242 17.9794 35.397 17.587 35.5445 17.2775C35.5736 17.2059 35.6103 17.1408 35.6546 17.0858C35.7895 16.8934 35.9704 16.7668 36.2198 16.7775C37.0716 16.8143 36.964 18.0395 36.9152 18.6015Z" fill="#DBDBDB"/>
<path d="M32.2713 23.3804C32.1036 23.7569 31.9296 24.1303 31.7568 24.5038C31.7651 24.5234 31.7663 24.5474 31.7543 24.5721C31.2145 25.7182 30.8158 26.9276 30.5904 28.1745C30.3809 29.3295 30.3929 30.47 30.3904 31.6319H29.8999C29.686 30.8382 29.7227 29.9421 29.829 29.1522C29.9644 28.1453 30.2505 27.1687 30.6258 26.2271C30.9909 25.31 31.4453 24.436 31.887 23.5544C32.1244 23.0817 32.3453 22.6019 32.5035 22.0963C32.6566 21.609 32.7611 21.1078 32.8953 20.6148C32.9156 20.5413 33.0409 20.5546 33.0307 20.6331C32.9061 21.5875 32.6624 22.5007 32.2713 23.3804Z" fill="#DBDBDB"/>
<path d="M32.9841 23.6195C32.4232 24.5344 32.0167 25.537 31.852 26.6005C31.7717 27.1189 31.7387 27.6411 31.775 28.1649C31.8163 28.7618 31.8987 29.3445 31.8853 29.9447C31.8837 30.0179 31.9994 30.0361 32.0149 29.9622C32.2319 28.9341 32.0553 27.8527 32.1579 26.8107C32.2653 25.7198 32.5633 24.6404 33.0519 23.6591C33.0744 23.6142 33.0108 23.576 32.9841 23.6195Z" fill="#DBDBDB"/>
<path d="M35.6863 14.5815C35.3127 15.4482 34.8739 16.28 34.5582 17.1729C34.2283 18.1057 34.07 19.0696 34.043 20.0566C34.015 21.0753 34.0145 22.0923 33.9144 23.1077C33.8097 24.171 33.6075 25.2155 33.4221 26.2664C33.4077 26.3478 33.526 26.3837 33.5479 26.3012C34.0555 24.3916 34.3752 22.3453 34.4137 20.3688C34.4523 18.3812 34.9808 16.4374 35.7432 14.6056C35.7566 14.5732 35.7002 14.5491 35.6863 14.5815Z" fill="#DBDBDB"/>
<path d="M35.0916 21.2453C35.0874 21.2053 35.0253 21.2037 35.0278 21.2453C35.1296 22.9059 34.6245 24.5556 34.2227 26.1507C34.0258 26.9325 33.856 27.7166 33.7471 28.516C33.6388 29.3112 33.5396 30.1438 33.6379 30.9445C33.65 31.0432 33.7944 31.0497 33.7966 30.9445C33.814 30.1029 33.8642 29.2898 34.0417 28.4638C34.2169 27.6487 34.4391 26.8432 34.6344 26.0328C35.0155 24.451 35.2656 22.8758 35.0916 21.2453Z" fill="#DBDBDB"/>
<path d="M34.6791 31.6319H34.3019C34.2671 31.3091 34.2563 30.9806 34.2342 30.6864C34.1867 30.0452 34.2494 29.427 34.2994 28.789C34.3064 28.701 34.4348 28.6991 34.4373 28.789C34.4544 29.4016 34.5392 30.0135 34.5823 30.6256C34.6026 30.9104 34.6267 31.1952 34.6589 31.4794C34.6645 31.5299 34.6715 31.5806 34.6791 31.6319Z" fill="#DBDBDB"/>
<path d="M32.6809 26.4492C32.6772 26.4177 32.6289 26.416 32.6305 26.4492C32.6623 27.1207 32.6236 27.7973 32.6072 28.4692C32.5911 29.1324 32.4993 29.826 32.5478 30.4866C32.5521 30.5453 32.6347 30.5607 32.6527 30.5008C32.837 29.8864 32.8442 29.1679 32.8478 28.5305C32.8517 27.8288 32.7619 27.1446 32.6809 26.4492Z" fill="#DBDBDB"/>
<path d="M31.3529 30.1269C31.3554 30.6041 31.3541 31.1382 31.2668 31.6319H30.9567C30.9003 31.1136 30.9478 30.558 31.0041 30.0655C31.0832 29.3839 31.1599 28.6998 31.2522 28.02C31.2605 27.9593 31.356 27.9764 31.3554 28.0339C31.3503 28.732 31.3484 29.4288 31.3529 30.1269Z" fill="#DBDBDB"/>
<path d="M36.4948 20.7554C36.2234 21.6952 35.5836 22.4687 35.6261 23.4856C35.6274 23.5165 35.6684 23.5209 35.6785 23.4927C35.8565 23.0007 35.9918 22.5283 36.2199 22.0534C36.4166 21.6439 36.5177 21.2154 36.5748 20.7663C36.5809 20.7195 36.5071 20.7127 36.4948 20.7554Z" fill="#DBDBDB"/>
<path d="M36.8084 14.2062C36.8077 14.1671 36.7531 14.169 36.749 14.2062C36.6437 15.1636 36.7949 16.1277 37.0058 17.0608C37.0157 17.1043 37.0872 17.0955 37.0844 17.0501C37.0272 16.0984 36.8233 15.1599 36.8084 14.2062Z" fill="#DBDBDB"/>
<path d="M33.7844 18.3617C33.3285 19.4781 33.4486 20.6908 33.4695 21.8704C33.4703 21.9136 33.5412 21.9272 33.5482 21.8811C33.7241 20.7238 33.5048 19.5156 33.8602 18.3826C33.8757 18.3331 33.803 18.3162 33.7844 18.3617Z" fill="#DBDBDB"/>
<path d="M0 12.3871C0 13.1075 3.42401e-07 16.5476 2.9202 17.1083C2.9202 17.1083 2.96822 17.4714 3.06058 18.0392C3.17233 18.7281 3.34987 19.7184 3.58549 20.7252C3.58549 20.7281 3.58621 20.7302 3.58692 20.7324C3.6686 21.0789 3.75666 21.427 3.85189 21.7657C3.85189 21.7686 3.85261 21.7707 3.85333 21.7736C3.86266 21.8058 3.87119 21.8373 3.88052 21.8688C4.07817 22.5613 4.22708 23.2172 4.33524 23.8366C5.23246 28.9817 3.32052 31.6119 3.32052 31.6119H7.33918C7.33918 31.6119 8.33523 26.7969 6.22133 21.9661C5.83034 21.0717 7.38496 20.3449 8.06524 18.6814C8.64166 17.2721 8.62524 10.3389 8.34519 9.89209C8.06586 9.44456 7.61905 9.55621 7.61905 10.1713C7.61905 10.7864 7.61905 16.5438 7.22734 17.6617C6.83635 18.7795 5.16505 20.1214 5.16505 20.1214C5.16505 20.1214 4.30643 18.5639 3.82523 15.1532C3.82523 15.1525 3.82523 15.1518 3.82523 15.1518C3.59967 13.5484 3.45713 11.5362 3.52661 9.08292C3.52589 9.0822 3.52589 9.08148 3.52661 9.08148C3.54097 8.56304 3.56529 8.02377 3.60039 7.46601C3.64051 6.82586 3.04038 7.10653 2.84058 7.66653C2.64006 8.22653 2.36011 11.4668 2.76043 15.8278C2.76043 15.8278 0.759715 15.5156 0.759715 12.0268C0.759715 11.3867 0 11.6667 0 12.3871Z" fill="#C7C7C7"/>
<path d="M5.34603 21.919C5.57662 22.7905 5.89239 23.639 6.12154 24.5127C6.35141 25.3899 6.5347 26.295 6.63855 27.1958C6.73953 28.0687 6.76816 28.9517 6.71736 29.8289C6.68226 30.431 6.55768 31.0197 6.46316 31.6119H6.8291C7.2638 30.2327 7.20501 28.6781 6.9816 27.286C6.83413 26.3694 6.60139 25.4815 6.33786 24.5928C6.0693 23.6884 5.8108 22.7646 5.46783 21.8852C5.43839 21.8116 5.32529 21.8388 5.34603 21.919Z" fill="#DBDBDB"/>
<path d="M3.72921 16.7222C3.88997 18.5603 4.62437 20.3453 5.15053 22.1005C5.68702 23.89 5.88323 25.7158 5.78234 27.581C5.78001 27.6249 5.71431 27.6256 5.7135 27.581C5.69698 26.5769 5.68146 25.566 5.49467 24.5759C5.32592 23.6816 5.05934 22.8036 4.79123 21.9349C4.52824 21.0827 4.23626 20.2371 4.01976 19.3714C3.80129 18.498 3.68981 17.6212 3.65202 16.7223C3.64995 16.672 3.72499 16.6733 3.72921 16.7222Z" fill="#DBDBDB"/>
<path d="M3.73718 31.612H4.14172C4.25419 31.3607 4.35517 31.1056 4.45112 30.8594C4.73754 30.1261 4.9517 29.3598 5.08347 28.5836C5.34484 27.0497 5.28471 25.5288 4.971 24.0085C4.96167 23.9656 4.89937 23.9849 4.90584 24.0264C5.14432 25.536 5.07342 27.1264 4.75899 28.6194C4.60434 29.3528 4.39448 30.0702 4.12314 30.7691C4.01068 31.0577 3.87604 31.3362 3.73718 31.612Z" fill="#DBDBDB"/>
<path d="M5.24278 29.6284C5.3355 29.2903 5.39205 28.8742 5.54913 28.5595C5.61043 28.4366 5.71419 28.3546 5.83644 28.3448C5.84488 28.3416 5.85421 28.3399 5.86463 28.3407C5.87899 28.3419 5.89281 28.3439 5.90618 28.3468C5.93105 28.3504 5.95627 28.3562 5.98203 28.366C6.03149 28.3846 6.08732 28.422 6.09602 28.4799C6.09647 28.4828 6.09683 28.486 6.09728 28.4888C6.27608 28.7709 6.20966 29.3747 6.18506 29.5962C6.14665 29.942 6.05303 30.849 5.51008 30.7679C4.98275 30.689 5.15275 29.9568 5.24278 29.6284Z" fill="#DBDBDB"/>
<path d="M3.06036 18.0392C3.17211 18.7281 3.34965 19.7184 3.58527 20.7252C3.58527 20.7281 3.58599 20.7302 3.58671 20.7324C3.61678 20.8469 3.64756 20.9615 3.67835 21.0761C3.74064 21.3059 3.79934 21.5358 3.85167 21.7657C3.85167 21.7686 3.85239 21.7707 3.85311 21.7736C3.86244 21.8058 3.87097 21.8373 3.88031 21.8688C4.07795 22.5613 4.22686 23.2172 4.33502 23.8366C4.42738 22.9729 4.27847 22.1151 4.04932 21.255C3.75931 20.1667 3.43277 19.0991 3.06036 18.0392Z" fill="#DBDBDB"/>
<path d="M7.97005 15.8176C7.96762 15.7551 7.98129 15.6956 8.00863 15.6349C8.02941 15.5888 8.09245 15.5658 8.1385 15.5727C8.19301 15.5809 8.22763 15.6156 8.24688 15.6661C8.24922 15.6723 8.25057 15.6786 8.25245 15.6849C8.26091 15.6973 8.26783 15.7109 8.27053 15.7272C8.27539 15.756 8.27638 15.784 8.2735 15.8109C8.31037 15.877 8.27971 15.9671 8.22673 16.0238C8.16189 16.0934 8.05765 16.0662 8.00908 15.9958C7.97203 15.9421 7.96097 15.8786 7.97005 15.8176Z" fill="#DBDBDB"/>
<path d="M5.69437 20.3186C6.64114 19.1978 7.75558 17.8833 7.7519 16.331C7.75181 16.2921 7.80602 16.2945 7.81069 16.331C8.02566 18.0369 6.93402 19.3028 5.77506 20.3993C5.72094 20.4505 5.64742 20.3741 5.69437 20.3186Z" fill="#DBDBDB"/>
<path d="M5.8388 21.07C5.88556 20.791 6.10385 20.5518 6.28795 20.3479C6.53586 20.0732 6.80505 19.8225 7.01571 19.5162C7.04362 19.4757 7.10672 19.5111 7.0824 19.5552C6.92945 19.8323 6.73477 20.0746 6.53209 20.3164C6.31712 20.5729 6.14191 20.871 5.9159 21.1149C5.88179 21.1517 5.8318 21.1118 5.8388 21.07Z" fill="#DBDBDB"/>
<path d="M8.18098 10.8838C8.18098 10.8526 8.22406 10.8548 8.22801 10.8838C8.40977 12.2463 8.4394 13.7017 8.1887 15.0596C8.18062 15.1032 8.11285 15.092 8.11285 15.0494C8.11303 13.6626 8.17954 12.2722 8.18098 10.8838Z" fill="#DBDBDB"/>
<path d="M7.88434 12.9929C7.88551 12.9824 7.90104 12.9818 7.90113 12.9929C7.90813 13.8926 7.90894 14.8671 7.70958 15.7482C7.69782 15.8002 7.61686 15.7883 7.61731 15.7357C7.62413 14.8286 7.78498 13.8947 7.88434 12.9929Z" fill="#DBDBDB"/>
<path d="M0.693463 14.4186C0.899997 15.0159 1.12583 15.5521 1.60738 15.9851C1.82747 16.183 2.07081 16.3572 2.33362 16.4939C2.58611 16.6251 2.86894 16.685 3.11631 16.8223C3.15293 16.8425 3.13193 16.89 3.09683 16.8941C2.50497 16.9646 1.82891 16.4842 1.44447 16.0762C1.02799 15.634 0.655136 15.0502 0.614296 14.4294C0.611244 14.3818 0.679371 14.3778 0.693463 14.4186Z" fill="#DBDBDB"/>
<path d="M0.605898 13.0687C0.725546 14.1825 1.31598 15.1237 2.08673 15.9035C2.10827 15.9253 2.08009 15.9648 2.05316 15.947C1.09257 15.3095 0.622144 14.1875 0.587408 13.0687C0.587049 13.0567 0.604641 13.0572 0.605898 13.0687Z" fill="#DBDBDB"/>
<path d="M2.87323 10.6306C2.877 10.5894 2.93947 10.5878 2.93866 10.6306C2.89414 13.1061 3.37561 15.5391 3.56347 17.9988C3.56661 18.0399 3.49831 18.0497 3.49095 18.0086C3.27391 16.8014 3.1066 15.5769 2.97143 14.3577C2.83401 13.1189 2.75906 11.8742 2.87323 10.6306Z" fill="#DBDBDB"/>
<path d="M3.17641 12.0692C3.24086 13.0882 3.45278 14.1723 3.82518 15.1519C3.59962 13.5486 3.45708 11.5364 3.52656 9.08308C3.4263 9.42677 3.33393 9.7727 3.2738 10.1279C3.16564 10.7695 3.13557 11.4204 3.17641 12.0692Z" fill="#DBDBDB"/>
<path d="M2.89936 9.26332C2.93266 9.04288 3.02681 8.84065 3.06891 8.62218C3.07771 8.57649 3.15517 8.57497 3.1628 8.62218C3.19332 8.81265 3.13363 8.97206 3.08417 9.15562C3.01479 9.4134 3.00069 9.67675 2.96739 9.94019C2.96111 9.98992 2.89289 9.9918 2.8885 9.94019C2.86956 9.71759 2.86579 9.48485 2.89936 9.26332Z" fill="#DBDBDB"/>
<path d="M5.56027 21.3204C6.11659 22.2769 6.46001 23.3096 6.67013 24.3911C6.67857 24.4345 6.61799 24.4517 6.6038 24.4094C6.25832 23.3809 5.86464 22.3675 5.50049 21.3456C5.48784 21.3102 5.54196 21.2889 5.56027 21.3204Z" fill="#DBDBDB"/>
<path d="M4.56225 22.1841C4.74123 22.5536 4.94309 23.0965 4.86186 23.5121C4.86024 23.5206 4.84732 23.5219 4.84346 23.5145C4.74625 23.3299 4.72103 23.114 4.67256 22.9125C4.61628 22.6787 4.54412 22.4489 4.48865 22.2152C4.4785 22.1727 4.54151 22.1413 4.56225 22.1841Z" fill="#DBDBDB"/>
<path d="M5.79136 31.4625C6.06037 31.0894 6.20497 30.6972 6.28422 30.2454C6.37694 29.7168 6.47756 29.1488 6.38107 28.6145C6.30199 28.1766 6.14994 27.7626 6.09133 27.3188C6.02096 26.7867 6.01908 26.2611 6.07257 25.7275C6.07598 25.6939 6.1275 25.6923 6.12625 25.7275C6.10435 26.3414 6.1573 26.9596 6.30316 27.5571C6.42416 28.0525 6.61884 28.531 6.61633 29.0476C6.61247 29.8359 6.49273 30.9639 5.86245 31.5176C5.82637 31.5492 5.75941 31.5068 5.79136 31.4625Z" fill="#DBDBDB"/>
<path d="M4.93789 31.612H5.17638C5.19209 31.4881 5.18284 31.3643 5.14487 31.2167C5.06535 30.9095 4.9071 30.5708 4.95441 30.2464C4.95728 30.2286 4.9308 30.2128 4.92218 30.2328C4.72516 30.6882 4.88341 31.1487 4.93789 31.612Z" fill="#DBDBDB"/>
<path d="M5.00042 29.9538C5.00096 29.9529 5.00241 29.9537 5.00187 29.9546C4.97893 29.9946 4.969 30.0375 4.97189 30.0834C4.97198 30.0845 4.97027 30.0845 4.97018 30.0834C4.9672 30.0369 4.97722 29.9942 5.00042 29.9538Z" fill="#DBDBDB"/>
<path d="M19.4608 40C28.2625 40 35.3977 38.3359 35.3977 36.2831C35.3977 34.2303 28.2625 32.5662 19.4608 32.5662C10.6591 32.5662 3.52393 34.2303 3.52393 36.2831C3.52393 38.3359 10.6591 40 19.4608 40Z" fill="#EBEBEB"/>
<path d="M32.4376 27.5684C32.3911 28.5047 31.0294 33.9181 30.3125 34.5144C29.5956 35.1108 28.3023 35.3852 28.3023 35.3852C28.3023 35.3852 26.8163 36.9311 26.1021 37.1067C25.3871 37.2824 23.5725 37.3973 23.5725 37.3973C23.5725 37.3973 21.4407 38.6488 18.9197 38.6355C16.3976 38.6222 14.4245 37.4371 14.4245 37.4371C14.4245 37.4371 12.3554 37.1447 11.9718 36.931C11.5871 36.7164 10.348 35.7517 10.348 35.7517C10.348 35.7517 9.43743 35.7279 9.02625 35.4449C8.61506 35.1619 7.29526 33.9911 7.11287 33.1375C6.92958 32.2829 6.27722 26.7375 6.54981 25.2059C6.82331 23.6752 10.7781 19.198 11.4296 18.7289C11.8474 18.4278 12.5473 18.1725 13.3714 17.9626L13.9915 19.3414L13.6914 17.8848C13.8235 17.8545 13.9573 17.825 14.0941 17.7965L14.9117 19.8152L15.1187 17.6057C16.9647 17.2999 18.8941 17.1689 19.6348 17.1955C20.3432 17.2211 21.9698 17.4234 23.5099 17.6836L23.7845 18.7038L24.2306 17.8108C24.449 17.8517 24.6627 17.8925 24.8668 17.9352V19.6786L25.7299 18.1261C26.18 18.2362 26.538 18.3463 26.7497 18.4479C27.8029 18.955 32.4832 26.6321 32.4376 27.5684Z" fill="#FFC727"/>
<g opacity="0.2">
<path d="M30.3606 28.8166C30.3589 29.2178 30.3059 29.654 30.1973 30.1477C30.103 30.5794 29.9792 31.0103 29.8499 31.4501C29.7234 31.8809 29.586 32.3198 29.4424 32.7552C29.2898 33.212 29.139 33.6276 28.9811 34.0225L28.8985 34.2317C28.7603 34.5781 28.6184 34.9372 28.456 35.2801C28.4452 35.3016 28.4246 35.3142 28.4012 35.3142C28.394 35.3142 28.386 35.3124 28.3779 35.3097C28.3474 35.2971 28.3321 35.2657 28.342 35.2352C28.3626 35.1688 28.386 35.1032 28.4093 35.0386C28.4237 34.9973 28.438 34.9569 28.4524 34.9156C28.7692 33.9857 29.043 33.1555 29.2889 32.3755C29.4325 31.9213 29.5582 31.5012 29.6758 31.0928C29.7862 30.7069 29.911 30.2572 29.9935 29.8075C30.0806 29.3372 30.1093 28.9126 30.0842 28.5105C30.0591 28.1236 29.9837 27.7197 29.8535 27.2754C29.6426 26.56 29.3392 25.8599 29.0448 25.1831C28.9954 25.0709 28.947 24.9587 28.8985 24.8456L28.7953 24.6069C28.4739 23.8601 28.1409 23.0873 27.7855 22.3414C27.7711 22.3118 27.7828 22.2777 27.8124 22.2633C27.8402 22.2498 27.8734 22.2615 27.8869 22.2893L27.9309 22.3791C27.9668 22.4518 28.0027 22.5245 28.0386 22.5972C28.4147 23.3431 28.8482 24.212 29.2512 25.0781C29.6121 25.8536 29.9855 26.6561 30.1964 27.5222C30.3077 27.9755 30.3624 28.4108 30.3606 28.8166Z" fill="black"/>
<path d="M12.1184 21.4214C12.0564 21.5246 11.9945 21.6287 11.9343 21.7338C11.4084 22.6394 10.9416 23.4769 10.5063 24.2955L10.4246 24.448C10.2334 24.8053 10.0351 25.1751 9.89773 25.5575C9.74245 25.991 9.69667 26.4317 9.67693 26.9604C9.64013 27.9235 9.64731 28.9019 9.69757 29.8677C9.74514 30.7823 9.834 31.7248 9.97044 32.7498C10.0279 33.1833 10.097 33.6402 10.1877 34.1877C10.2307 34.448 10.281 34.7119 10.3304 34.9668C10.3726 35.1867 10.4165 35.4129 10.4551 35.6373C10.4614 35.6732 10.439 35.7064 10.4031 35.7145C10.3977 35.7163 10.3923 35.7163 10.3869 35.7163C10.3582 35.7163 10.334 35.6984 10.325 35.6696C10.2936 35.5646 10.263 35.4533 10.228 35.3205C10.0952 34.8169 9.99288 34.3107 9.9094 33.8816C9.81156 33.3745 9.73258 32.9015 9.66795 32.4356C9.5396 31.5057 9.45343 30.5184 9.41214 29.5014C9.36457 28.3157 9.36995 27.4083 9.43009 26.5583C9.45074 26.2692 9.48395 26.0386 9.53511 25.8312C9.58627 25.6266 9.66256 25.4165 9.77476 25.1697C9.97133 24.7371 10.2101 24.317 10.4578 23.8888C10.9362 23.0613 11.4461 22.2337 12.0151 21.3586C12.0268 21.3406 12.0465 21.3307 12.0663 21.3307C12.078 21.3307 12.0887 21.3343 12.0995 21.3406C12.1273 21.3586 12.1354 21.3927 12.1184 21.4214Z" fill="black"/>
<path d="M25.7426 27.8804C25.9176 28.9333 25.9311 30.0104 25.7839 31.0812C25.6502 32.0515 25.397 33.0657 25.0102 34.1823C24.8468 34.6527 24.6574 35.1481 24.4312 35.6983C24.2356 36.1732 24.0237 36.6776 23.7706 37.1623C23.7598 37.1829 23.7392 37.1937 23.7177 37.1937C23.7087 37.1937 23.7006 37.1928 23.6925 37.1892C23.6638 37.1767 23.6494 37.1452 23.6584 37.1165C23.7024 36.9783 23.7446 36.8571 23.7877 36.7458C23.8361 36.6175 23.8837 36.4882 23.9313 36.359C23.9762 36.2378 24.0201 36.1157 24.0668 35.9954C24.162 35.7441 24.2562 35.4928 24.3496 35.2415C24.5641 34.667 24.7319 34.1886 24.8773 33.7362C25.2453 32.5972 25.4715 31.5883 25.5676 30.6521C25.6223 30.1199 25.6376 29.5966 25.6125 29.0948C25.5882 28.6272 25.5218 28.1156 25.4015 27.4864C25.2139 26.5062 24.9967 25.474 24.7167 24.2371C24.4941 23.2524 24.2311 22.1978 23.9115 21.013L23.9008 20.9708L23.9465 20.9528C23.9717 20.9448 23.9986 20.9591 24.0067 20.9852C24.048 21.1153 24.0893 21.2455 24.1296 21.3756C24.4519 22.4141 24.7553 23.502 25.0308 24.6078C25.3333 25.8195 25.5703 26.8392 25.7426 27.8804Z" fill="black"/>
<path d="M14.2536 36.3976C14.3164 36.7144 14.3819 37.0429 14.4169 37.3696C14.4205 37.3984 14.4026 37.4226 14.3747 37.4298C14.3702 37.4307 14.3667 37.4307 14.3622 37.4307C14.3379 37.4307 14.3164 37.4163 14.3083 37.393C14.2679 37.2763 14.2347 37.1704 14.2078 37.069C14.1099 36.6983 14.0292 36.3168 13.9511 35.947L13.9134 35.7693C13.8326 35.3914 13.7545 34.9749 13.6656 34.4597C13.5193 33.6133 13.3955 32.7211 13.2949 31.8082C13.1863 30.8128 13.1082 29.9763 13.0822 29.1316C13.067 28.6308 13.084 28.1928 13.1361 27.7915C13.1881 27.3903 13.2734 26.9747 13.3982 26.5206C13.6288 25.6813 13.9502 24.8636 14.2625 24.1052C14.2769 24.0702 14.3155 24.054 14.3532 24.0684C14.3909 24.0827 14.4097 24.1213 14.3972 24.1572L14.364 24.2524C14.3397 24.3224 14.3155 24.3933 14.2904 24.4633C14.013 25.2451 13.7276 26.0538 13.5454 26.8913C13.3721 27.6874 13.3138 28.5383 13.365 29.4925C13.4089 30.2922 13.4834 31.1341 13.601 32.1403C13.7033 33.0182 13.8263 33.9023 13.9681 34.7693L13.9951 34.9381C14.057 35.3142 14.1198 35.7037 14.1925 36.0843C14.2123 36.1884 14.2329 36.2925 14.2536 36.3976Z" fill="black"/>
<path d="M26.3242 19.5023C25.8573 19.6679 25.3845 19.8192 24.9107 19.964C24.4354 20.1093 23.9619 20.2553 23.4789 20.3739C22.5182 20.6099 21.5396 20.7699 20.554 20.854C19.5681 20.9382 18.5759 20.9468 17.5886 20.881C16.5973 20.8148 15.6114 20.6714 14.6424 20.4521C14.1584 20.3426 13.6751 20.2263 13.1982 20.089C12.7215 19.952 12.2536 19.7908 11.7839 19.633C11.6697 19.5946 11.5568 19.5542 11.4446 19.5102C11.4329 19.5056 11.4251 19.5254 11.4365 19.5307C11.8883 19.7377 12.3396 19.9377 12.8072 20.1075C13.2779 20.2785 13.7577 20.4302 14.243 20.5542C15.213 20.8022 16.2086 20.9591 17.2055 21.0462C18.2042 21.1335 19.2096 21.1432 20.2096 21.0758C21.2051 21.0088 22.196 20.8653 23.1694 20.6465C23.6582 20.5366 24.1425 20.4074 24.6209 20.2589C25.0994 20.1104 25.5618 19.9208 26.018 19.7148C26.1293 19.6646 26.2372 19.6064 26.3465 19.5521C26.3746 19.5383 26.3535 19.4919 26.3242 19.5023Z" fill="black"/>
</g>
<path opacity="0.3" d="M14.2939 23.3934C13.3835 23.3139 12.9185 24.0228 12.8603 24.5357C12.8066 25.0081 12.9826 25.9636 14.0084 26.0568C14.953 26.1427 15.3954 25.4943 15.442 24.7805C15.4838 24.1403 14.9609 23.4518 14.2939 23.3934Z" fill="black"/>
<path opacity="0.3" d="M21.6341 24.355C21.3064 25.2082 21.7956 25.8745 22.2637 26.0918C22.7533 26.319 23.7028 26.3067 24.0776 25.3475C24.388 24.5532 23.9707 23.8414 23.2981 23.5975C22.6397 23.3585 21.8741 23.73 21.6341 24.355Z" fill="black"/>
<path opacity="0.3" d="M17.2661 27.1933C17.2336 27.1666 18.5482 23.9647 18.6065 23.9413C18.6175 23.9369 18.9116 23.9413 18.9116 23.9413C19.1192 24.7157 19.3713 27.0784 19.3524 27.135C19.3291 27.2049 17.3943 27.2981 17.2661 27.1933Z" fill="black"/>
<path opacity="0.3" d="M24.9402 30.8213C24.3013 31.3808 23.6766 31.8786 22.8847 32.202C22.8282 32.225 22.63 32.1959 22.5795 32.202L22.3367 30.6899L20.0991 31.2956L20.6816 32.7499C19.8751 32.9118 19.1159 32.9801 18.4997 32.9801C16.7689 32.9801 14.5249 32.4406 12.3841 30.7341C9.96033 28.8014 8.83943 25.8645 9.5408 25.2652C10.0624 24.8194 10.7743 25.3178 12.2474 26.4849C12.668 26.8172 13.158 27.1305 13.7006 27.4071L12.852 28.732L14.6901 29.6878L15.3704 28.0864C15.4336 28.1064 15.6117 28.0676 15.6756 28.0864C15.7796 28.117 15.77 28.2041 15.8762 28.2315L15.5649 29.6405L17.056 29.8972L17.1202 28.4786C17.1986 28.4894 17.3464 28.4696 17.4254 28.4786C17.8016 28.5216 18.1148 28.5743 18.4998 28.5743C19.9382 28.5743 22.3325 28.2925 23.5523 27.7215C25.2999 26.9024 26.9613 25.1085 27.5438 26.0917C28.1263 27.0748 26.7898 29.2009 24.9402 30.8213Z" fill="black"/>
<path d="M14.5991 23.3934C13.6887 23.3139 13.2238 24.0228 13.1655 24.5357C13.1118 25.0081 13.2879 25.9636 14.3136 26.0568C15.2582 26.1427 15.7007 25.4943 15.7472 24.7805C15.7891 24.1403 15.2661 23.4518 14.5991 23.3934Z" fill="#263238"/>
<path d="M21.9391 24.355C21.6114 25.2082 22.1006 25.8745 22.5687 26.0918C23.0583 26.319 24.0077 26.3067 24.3826 25.3475C24.693 24.5532 24.2757 23.8414 23.6031 23.5975C22.9447 23.3585 22.1792 23.73 21.9391 24.355Z" fill="#263238"/>
<path d="M17.5713 27.1933C17.5388 27.1666 18.8534 23.9647 18.9118 23.9413C18.97 23.918 19.681 27.0651 19.6578 27.135C19.6343 27.2049 17.6995 27.2981 17.5713 27.1933Z" fill="#263238"/>
<path d="M25.2454 30.8213C24.5609 31.4206 23.7376 31.8718 22.8848 32.202L22.6419 30.6899L20.4043 31.2956L20.9868 32.7499C20.1804 32.9118 19.4211 32.9801 18.8049 32.9801C17.0741 32.9801 14.8301 32.4406 12.6893 30.7341C10.2656 28.8014 9.14466 25.8645 9.84604 25.2652C10.3676 24.8194 11.0795 25.3178 12.5526 26.4849C12.9732 26.8172 13.4632 27.1305 14.0058 27.4071L13.1572 28.732L14.9953 29.6878L15.6757 28.0864C15.8418 28.139 16.01 28.1874 16.1814 28.2315L15.8702 29.6405L17.3612 29.8972L17.4254 28.4786C17.8775 28.5406 18.3391 28.5743 18.805 28.5743C20.2435 28.5743 22.6378 28.2925 23.8575 27.7215C25.6051 26.9024 27.2665 25.1085 27.849 26.0917C28.4315 27.0748 27.0951 29.2009 25.2454 30.8213Z" fill="#263238"/>
<path d="M11.9197 9.0571C11.5244 9.07874 11.4986 2.56614 12.9949 0.822134C13.2096 0.571978 16.7645 4.95748 16.8155 5.10783C16.8664 5.25826 12.7356 9.0124 11.9197 9.0571Z" fill="#263238"/>
<path d="M12.04 9.02729C11.7026 9.04578 11.6807 3.48839 12.9575 2.00019C13.1407 1.78666 16.1741 5.52895 16.2177 5.65731C16.2611 5.78566 12.7362 8.98914 12.04 9.02729Z" fill="#37474F"/>
<path d="M13.2313 8.59984C13.2124 8.42149 13.1837 8.24493 13.1446 8.07071C13.1084 7.89613 13.0622 7.7238 13.0065 7.55505C12.8964 7.21747 12.7501 6.89102 12.5501 6.6002C12.3548 6.30732 12.1034 6.05007 11.804 5.86338C11.7315 5.81275 11.6515 5.77496 11.574 5.73197C11.4927 5.69759 11.4135 5.65684 11.3286 5.63036C11.1634 5.56349 10.9877 5.52876 10.8123 5.49178C11.1689 5.51888 11.5287 5.61358 11.842 5.8009C12.0015 5.88905 12.1455 6.00385 12.2763 6.13041C12.407 6.25714 12.527 6.39582 12.6286 6.54697C12.8282 6.85126 12.9791 7.1857 13.0761 7.53378C13.1728 7.88168 13.2313 8.24054 13.2313 8.59984Z" fill="#455A64"/>
<path d="M13.4801 8.48334C13.4945 8.22573 13.4906 7.96786 13.4698 7.7116C13.4513 7.45525 13.4186 7.20015 13.3692 6.94856C13.2707 6.446 13.1189 5.95206 12.8855 5.49699C12.7711 5.26882 12.6415 5.04793 12.4915 4.84112C12.3397 4.63576 12.1729 4.44152 11.9907 4.26191C11.8067 4.08473 11.6118 3.9167 11.3987 3.77345C11.1915 3.62095 10.9648 3.49834 10.7378 3.37555C11.2129 3.57643 11.6593 3.85531 12.0412 4.20896C12.2346 4.38336 12.4031 4.58343 12.5612 4.78996C12.7165 4.99919 12.8515 5.22287 12.9704 5.45453C13.2011 5.92172 13.3565 6.42392 13.4409 6.93581C13.5223 7.4478 13.5462 7.97064 13.4801 8.48334Z" fill="#455A64"/>
<path d="M15.3398 15.6725C15.3492 15.5473 11.8088 13.3707 10.8482 10.5548C10.7021 10.1264 13.9689 5.62506 15.5519 4.80126C16.3506 4.38559 21.7709 5.04917 22.0268 5.20302C22.2826 5.35687 25.6183 10.3597 25.5967 11.5859C25.5875 12.1108 23.6528 14.3459 21.6325 15.4165C21.4204 15.5289 22.2219 16.6546 22.6922 17.1796C23.1625 17.7045 24.7946 18.8263 25.2438 19.895C25.2438 19.895 22.2314 20.9341 19.6589 21.0438C17.0865 21.1536 15.3334 20.6418 15.3334 20.6418C15.3334 20.6418 15.1462 18.2622 15.3398 15.6725Z" fill="#263238"/>
<path d="M14.2306 8.21396C13.3798 8.07726 12.8153 8.85798 12.6558 9.85044C12.5267 10.6542 12.8998 11.5561 13.7164 11.6873C14.533 11.8186 15.193 10.9351 15.3143 10.1804C15.4357 9.42561 15.1545 8.36242 14.2306 8.21396Z" fill="#263238"/>
<path d="M14.2788 8.43511C13.4791 8.30658 12.9485 9.04044 12.7985 9.9733C12.6771 10.7289 13.0278 11.5767 13.7954 11.7C14.563 11.8233 15.1834 10.9929 15.2974 10.2834C15.4115 9.57405 15.1472 8.57469 14.2788 8.43511Z" fill="#FFC727"/>
<path d="M14.2309 8.79036C13.6048 8.68974 13.1895 9.26428 13.0721 9.99446C12.977 10.5859 13.2516 11.2496 13.8524 11.3461C14.4533 11.4427 14.939 10.7926 15.0282 10.2373C15.1175 9.68193 14.9107 8.89959 14.2309 8.79036Z" fill="#263238"/>
<path d="M14.5186 8.84995C14.2343 8.80426 14.0457 9.0651 13.9924 9.39676C13.9493 9.66532 14.0739 9.96672 14.3468 10.0105C14.6197 10.0543 14.8402 9.7592 14.8807 9.50698C14.9213 9.25485 14.8273 8.89959 14.5186 8.84995Z" fill="white"/>
<path d="M20.4292 9.00544C21.5406 8.85824 22.2125 9.63716 22.3444 10.6337C22.4513 11.4407 21.9009 12.3522 20.8343 12.4934C19.7677 12.6347 18.9798 11.7536 18.8793 10.9957C18.779 10.2379 19.2225 9.1653 20.4292 9.00544Z" fill="#263238"/>
<path d="M20.3502 9.22848C21.3948 9.09007 22.0264 9.82232 22.1506 10.7589C22.2511 11.5176 21.7336 12.3743 20.731 12.5072C19.7284 12.6399 18.9878 11.8117 18.8934 11.0994C18.799 10.387 19.2158 9.37873 20.3502 9.22848Z" fill="#FFC727"/>
<path d="M20.3857 9.58532C21.2035 9.47698 21.6979 10.0502 21.795 10.7833C21.8736 11.3772 21.4686 12.0478 20.6838 12.1518C19.899 12.2557 19.3192 11.6074 19.2453 11.0497C19.1715 10.4922 19.4977 9.70299 20.3857 9.58532Z" fill="#263238"/>
<path d="M20.9134 9.60216C21.2847 9.55298 21.5093 9.81328 21.5534 10.1462C21.5891 10.4158 21.4052 10.7205 21.0488 10.7676C20.6923 10.8148 20.4291 10.5204 20.3956 10.2672C20.362 10.014 20.5101 9.65557 20.9134 9.60216Z" fill="white"/>
<path d="M17.2355 10.7326C17.2172 10.8385 16.5559 11.2006 16.4817 11.1968C16.4087 11.193 15.7768 10.7638 15.7652 10.6562C15.7536 10.55 16.3531 10.5414 16.5057 10.5493C16.6594 10.5573 17.2549 10.6279 17.2355 10.7326Z" fill="#455A64"/>
<path d="M15.2488 11.3902C15.3455 11.5468 15.4444 11.7018 15.5551 11.8443C15.611 11.914 15.6688 11.9845 15.7338 12.0347C15.7652 12.0594 15.8018 12.0768 15.8213 12.0763C15.8413 12.0753 15.8786 12.0623 15.9061 12.0411C15.9662 11.9987 16.0161 11.9277 16.0623 11.8561C16.1075 11.7828 16.1474 11.7041 16.183 11.6228C16.2545 11.461 16.3181 11.2899 16.367 11.1205L16.4578 10.8061L16.5496 11.1207C16.61 11.3279 16.6898 11.5366 16.7847 11.7304C16.8324 11.8274 16.8859 11.921 16.949 12.0038C17.0126 12.0838 17.0852 12.1599 17.1681 12.1855L17.1989 12.1929L17.23 12.1954C17.2533 12.1947 17.277 12.1923 17.3007 12.1876C17.3484 12.1778 17.3966 12.1604 17.4432 12.1372C17.5369 12.0909 17.6237 12.024 17.706 11.9519C17.87 11.8056 18.015 11.6335 18.1484 11.4529C18.0473 11.6542 17.9216 11.8442 17.7674 12.0144C17.69 12.0993 17.6027 12.1773 17.5002 12.2403C17.3971 12.3004 17.2771 12.3538 17.1314 12.3232C16.9946 12.2879 16.8993 12.1968 16.8215 12.1066C16.7445 12.0138 16.6823 11.914 16.6267 11.8121C16.5172 11.6065 16.4361 11.3944 16.367 11.1724L16.5496 11.1726C16.4925 11.3543 16.4283 11.5282 16.344 11.6986C16.3016 11.7832 16.2543 11.8665 16.199 11.9466C16.1427 12.0261 16.0777 12.1039 15.983 12.1617C15.9338 12.1895 15.8817 12.2115 15.8096 12.2072C15.7371 12.196 15.6948 12.1574 15.6568 12.1238C15.5839 12.0524 15.5313 11.9742 15.4829 11.8936C15.3879 11.7324 15.3111 11.564 15.2488 11.3902Z" fill="#455A64"/>
<path d="M24.2372 19.9271C24.4161 19.4983 20.6501 17.9935 19.3981 18.8168C18.1462 19.6402 19.0778 23.0564 19.7925 23.1002C20.0838 23.1181 20.7596 22.6256 21.0616 21.8124C21.2651 21.2646 21.0236 20.7758 21.0236 20.7758C21.0236 20.7758 24.0623 20.3462 24.2372 19.9271Z" fill="#263238"/>
<path d="M20.11 21.624C20.1108 21.6161 20.1226 21.6159 20.1239 21.6237C20.156 21.8271 20.1963 22.0302 20.2477 22.2295C20.2946 22.4111 20.3525 22.5894 20.5029 22.7122C20.512 22.7196 20.5021 22.7334 20.4922 22.7269C20.3354 22.6235 20.2009 22.4696 20.1369 22.2915C20.0592 22.0754 20.0883 21.8468 20.11 21.624Z" fill="#455A64"/>
<path d="M19.5605 21.9773C19.5611 21.9695 19.5731 21.9691 19.5744 21.9769C19.5999 22.1327 19.6545 22.3271 19.724 22.5521C19.7737 22.7129 19.8311 22.9749 20.0234 23.016C20.0565 23.0231 20.0492 23.04 20.0152 23.0396C19.8101 23.037 19.6954 22.8174 19.6314 22.6519C19.5468 22.4336 19.5433 22.2075 19.5605 21.9773Z" fill="#455A64"/>
<path d="M23.3294 19.2163C23.2133 19.1755 23.1001 19.1282 22.9831 19.0888C22.8881 19.0568 22.1618 18.7684 21.2399 18.5964C21.2344 18.5565 21.23 18.5172 21.2302 18.4767C21.2305 18.3995 21.2379 18.3225 21.2521 18.2467C21.2825 18.0853 21.3558 17.9402 21.4738 17.8255C21.7289 17.5775 22.0878 17.536 22.4278 17.5395C22.4341 17.5396 22.4347 17.5301 22.4284 17.5297C22.0731 17.5066 21.6586 17.5047 21.3748 17.7564C21.2404 17.8758 21.1643 18.0452 21.1342 18.2202C21.1192 18.307 21.1199 18.3968 21.1338 18.4838C21.1384 18.5123 21.1443 18.5466 21.152 18.581C20.9715 18.5493 20.7849 18.5217 20.5938 18.5022C20.1678 18.4588 19.7085 18.4515 19.3476 18.719C19.0172 18.9639 18.8695 19.3737 18.8133 19.7666C18.777 20.0204 18.7675 20.2823 18.7666 20.5386C18.7657 20.7993 18.7849 21.0591 18.8561 21.3109C18.8588 21.3204 18.873 21.3175 18.8712 21.3077C18.7894 20.8641 18.8207 20.4078 18.8879 19.9645C18.9466 19.578 19.0547 19.1697 19.3562 18.8984C19.6677 18.6181 20.1083 18.6207 20.5042 18.6443C20.7479 18.6589 20.9899 18.6912 21.2187 18.7315L21.2189 18.7318C21.2257 18.7386 21.2346 18.739 21.2418 18.7357C21.8543 18.8453 22.3676 19.0114 22.5467 19.0556C22.6735 19.0868 22.7988 19.1239 22.9247 19.1586C23.0547 19.1945 23.1862 19.2217 23.3164 19.2557C23.342 19.2622 23.3548 19.2252 23.3294 19.2163Z" fill="#455A64"/>
<path d="M20.8451 20.1366C20.834 20.1119 20.8213 20.0877 20.8095 20.0632C20.8043 19.9678 20.7951 19.8726 20.7792 19.7783C20.7777 19.7699 20.7647 19.7727 20.7661 19.7811C20.7801 19.8638 20.7882 19.9472 20.7937 20.0307C20.714 19.8725 20.6195 19.7202 20.5189 19.5755C20.5132 19.5673 20.5014 19.5768 20.5051 19.585C20.5946 19.7816 20.6768 19.9809 20.7637 20.1786C20.8494 20.3734 20.9245 20.579 21.0302 20.7638C21.0342 20.7709 21.0442 20.7669 21.0433 20.7591C21.0182 20.5453 20.9328 20.3322 20.8451 20.1366Z" fill="#455A64"/>
<path d="M15.9141 19.5809C16.0894 19.3797 16.6992 18.7836 17.1956 18.9883C17.6918 19.193 18.5654 22.5477 18.0552 22.8623C17.9206 22.9453 17.0531 22.6256 16.6196 22.0073C16.4104 21.7088 16.4512 21.4369 16.4412 20.9245C16.4412 20.9245 15.5801 20.6786 15.5051 20.6116C15.4302 20.5448 15.6439 19.8909 15.9141 19.5809Z" fill="#263238"/>
<path d="M17.9759 20.5612C17.9346 20.3859 17.8849 20.2126 17.8285 20.0416C17.7725 19.8724 17.7162 19.7029 17.6456 19.5391C17.5786 19.3835 17.5109 19.2217 17.4207 19.0776C17.3421 18.9521 17.2363 18.85 17.0846 18.8276C16.9389 18.8062 16.789 18.8601 16.661 18.925C16.5278 18.9925 16.4008 19.0737 16.2826 19.1658C16.2777 19.143 16.2711 19.1205 16.2653 19.1034C16.2472 19.049 16.2263 18.9961 16.1991 18.9457C16.1463 18.8476 16.08 18.7608 15.9959 18.6875C15.8235 18.5375 15.5617 18.4824 15.3439 18.5567C15.3301 18.5614 15.3394 18.5799 15.3515 18.579C15.4677 18.5711 15.5788 18.5794 15.6876 18.6253C15.7799 18.6644 15.8642 18.7229 15.9366 18.7918C16.0051 18.857 16.0662 18.9346 16.1166 19.0145C16.1439 19.0579 16.1703 19.1013 16.1963 19.1454C16.2066 19.1629 16.2187 19.1855 16.2325 19.2062C16.1379 19.2842 16.049 19.3691 15.9679 19.4603C15.7623 19.6919 15.5739 19.9861 15.5211 20.2963C15.52 20.3031 15.5306 20.3068 15.534 20.3007C15.5989 20.1815 15.6575 20.0599 15.7288 19.944C15.7977 19.8321 15.8736 19.7242 15.9583 19.6238C16.132 19.4179 16.3412 19.2351 16.5769 19.1033C16.6965 19.0363 16.8269 18.9696 16.9655 18.9565C17.1051 18.9433 17.213 19.0096 17.2885 19.1235C17.3755 19.2549 17.4417 19.4052 17.508 19.5477C17.5765 19.6948 17.6455 19.8425 17.7051 19.9935C17.7738 20.1674 17.8329 20.3453 17.8857 20.5245C17.9398 20.7082 17.98 20.8962 18.0375 21.0787C18.0414 21.0908 18.0633 21.0929 18.0625 21.0773C18.0537 20.9037 18.0157 20.7301 17.9759 20.5612Z" fill="#455A64"/>
<path d="M16.5565 19.9641C16.5175 20.1026 16.4789 20.2447 16.4518 20.3885C16.4385 20.3111 16.4346 20.2322 16.4392 20.1533C16.4398 20.1424 16.4236 20.1412 16.4224 20.1519C16.4119 20.2457 16.4209 20.3399 16.4437 20.431C16.4157 20.5949 16.4049 20.7606 16.4299 20.9254C16.4312 20.9337 16.4424 20.9319 16.4438 20.9246C16.5034 20.6079 16.5004 20.2823 16.5673 19.9664C16.5687 19.9603 16.5582 19.958 16.5565 19.9641Z" fill="#455A64"/>
<path d="M17.3227 21.4989C17.3193 21.4917 17.3079 21.4955 17.3095 21.5033C17.3487 21.7053 17.3801 21.91 17.3999 22.115C17.4178 22.3017 17.4242 22.489 17.3248 22.6558C17.3188 22.6659 17.3329 22.6755 17.3399 22.6661C17.452 22.5154 17.526 22.3248 17.5252 22.1355C17.5244 21.9057 17.4191 21.7008 17.3227 21.4989Z" fill="#455A64"/>
<path d="M17.8946 21.6957C17.8913 21.6886 17.8799 21.6923 17.8814 21.7001C17.9105 21.8552 17.9256 22.0567 17.9371 22.2918C17.9453 22.46 17.9808 22.7257 17.814 22.83C17.7853 22.848 17.7979 22.8614 17.8298 22.8494C18.0217 22.777 18.0546 22.5314 18.0583 22.354C18.0631 22.1199 17.9892 21.9062 17.8946 21.6957Z" fill="#455A64"/>
<path d="M12.3129 10.3778C11.8436 10.3297 11.3737 10.2975 10.9034 10.2761C10.4332 10.2552 9.96275 10.2395 9.49214 10.2457C9.25689 10.2426 9.02163 10.2492 8.78646 10.2532C8.55139 10.2616 8.31622 10.27 8.08123 10.2829C7.61081 10.3032 7.14209 10.3482 6.67194 10.3889C6.90459 10.3509 7.13751 10.3113 7.37178 10.2823C7.60623 10.2546 7.84086 10.228 8.07639 10.21C8.54708 10.1691 9.01966 10.1556 9.49205 10.1508C9.96445 10.1526 10.4369 10.1669 10.9079 10.2035C11.1433 10.222 11.3784 10.245 11.613 10.2714C11.847 10.3025 12.0811 10.3326 12.3129 10.3778Z" fill="#455A64"/>
<path d="M12.1143 10.6465C11.9016 10.6514 11.6893 10.6556 11.477 10.665C11.2647 10.6718 11.0526 10.6806 10.8407 10.692C10.4168 10.7138 9.99311 10.7386 9.57071 10.7777C9.35906 10.7925 9.14804 10.8138 8.93683 10.8334L8.30458 10.9054L7.98854 10.9436L7.6734 10.9889C7.46219 11.0133 7.25386 11.0544 7.04266 11.0821C7.45582 10.9814 7.87338 10.8955 8.29461 10.833C8.71531 10.7672 9.13888 10.7209 9.56299 10.6831C9.98755 10.6519 10.4126 10.6255 10.8384 10.6193C11.2638 10.6127 11.6897 10.6164 12.1143 10.6465Z" fill="#455A64"/>
<path d="M12.2286 10.9161C12.053 10.9414 11.8777 10.9658 11.703 10.9948C11.5281 11.0214 11.3533 11.0486 11.1791 11.0794C10.8307 11.1403 10.4821 11.2 10.1353 11.2685C9.78811 11.3353 9.44164 11.406 9.09572 11.4801C8.74934 11.5525 8.40511 11.6346 8.05829 11.7093C8.2265 11.6532 8.39578 11.6002 8.5656 11.549C8.73632 11.5013 8.90695 11.4525 9.07893 11.4089C9.42199 11.3178 9.76926 11.2444 10.1173 11.1753C10.466 11.1088 10.8163 11.0512 11.1685 11.0074C11.5204 10.9634 11.8738 10.9268 12.2286 10.9161Z" fill="#455A64"/>
<path d="M23.0887 11.9151C23.3808 11.8941 23.6736 11.8907 23.9664 11.8865C24.2592 11.8877 24.5521 11.8929 24.8448 11.9039C25.4302 11.9261 26.0146 11.9739 26.597 12.0381C27.1786 12.1087 27.7592 12.1909 28.334 12.3049C28.6219 12.3587 28.9077 12.4231 29.1931 12.4888C29.336 12.5207 29.4773 12.5591 29.6187 12.597L30.0424 12.7118C29.4694 12.5918 28.8981 12.4689 28.321 12.3767C28.0331 12.3269 27.7443 12.2841 27.4555 12.2405C27.166 12.2026 26.8768 12.1614 26.5862 12.1323C26.0065 12.0603 25.424 12.0142 24.8411 11.9765C24.2581 11.9396 23.6738 11.9163 23.0887 11.9151Z" fill="#455A64"/>
<path d="M23.2963 12.2739C23.8235 12.3004 24.3488 12.3571 24.8721 12.4262C25.3957 12.4948 25.916 12.5861 26.4349 12.6845C26.9525 12.7892 27.4681 12.905 27.9779 13.0428C28.4888 13.1764 28.9922 13.3382 29.4891 13.5152C29.2334 13.4492 28.9825 13.3686 28.726 13.3073L28.3441 13.2061L27.96 13.1136C27.7042 13.0511 27.447 12.9943 27.1905 12.9354C26.9327 12.8816 26.6755 12.8256 26.4166 12.7776C25.9008 12.6717 25.3817 12.582 24.8616 12.4982C24.6017 12.4557 24.3412 12.4163 24.0802 12.3796C23.8195 12.3405 23.5582 12.3068 23.2963 12.2739Z" fill="#455A64"/>
<path d="M23.1182 12.5903C23.5532 12.6574 23.9831 12.7536 24.4104 12.8587C24.8376 12.9644 25.2608 13.0861 25.6819 13.214C26.1005 13.3498 26.5191 13.4866 26.9303 13.6436C27.1365 13.7203 27.3405 13.803 27.5447 13.8845C27.7477 13.9694 27.9495 14.0572 28.15 14.1473C27.7345 14.0025 27.3221 13.8515 26.9057 13.7124C26.4904 13.5699 26.0734 13.4328 25.6537 13.3045C25.2361 13.1693 24.8139 13.0494 24.3918 12.9289C24.181 12.8677 23.969 12.8108 23.7566 12.7547C23.5447 12.6967 23.3317 12.6433 23.1182 12.5903Z" fill="#455A64"/>
<path d="M19.9757 4.86184C19.5921 4.96013 23.1097 11.0841 24.7468 11.1063C25.0765 11.1108 25.0283 8.18909 24.9976 8.03336C24.9811 7.95007 24.003 5.76948 22.6807 5.21531C22.2286 5.02574 20.2296 4.79677 19.9757 4.86184Z" fill="#263238"/>
<path d="M24.9731 9.86069C24.9642 10.0657 24.9406 10.2747 24.8875 10.4735C24.8607 10.5737 24.8371 10.6748 24.8106 10.7751C24.7974 10.8252 24.7831 10.8751 24.7678 10.9246C24.7598 10.9503 24.7443 11.039 24.7134 11.0509C24.68 11.0637 24.491 10.9295 24.4474 10.902C24.3599 10.8468 24.2726 10.7917 24.1861 10.7348C24.0142 10.6218 23.8468 10.5019 23.6869 10.3725C23.3644 10.1112 23.0695 9.8124 22.7852 9.51054C22.5063 9.21452 22.2384 8.90709 21.9817 8.59159C21.6926 8.23642 21.4088 7.86859 21.1589 7.4846C21.1538 7.47697 21.1429 7.48505 21.1475 7.49277C21.3687 7.86698 21.5936 8.23445 21.8484 8.58729C22.0998 8.93546 22.37 9.26864 22.6597 9.58576C22.9578 9.91203 23.2669 10.2337 23.6128 10.5099C23.7815 10.6446 23.9582 10.7699 24.1403 10.886C24.2325 10.9448 24.3255 11.0023 24.4204 11.0566C24.468 11.0838 24.6545 11.186 24.7062 11.182C24.824 11.173 24.8444 11.045 24.8714 10.9535C24.9066 10.8344 24.9372 10.7137 24.9556 10.5908C24.9915 10.3516 24.9955 10.1027 24.9877 9.86123C24.9875 9.85315 24.9735 9.85234 24.9731 9.86069Z" fill="#455A64"/>
<path d="M18.1134 18.4803C17.9092 18.1031 17.7276 17.6965 17.6345 17.2758C17.627 17.2423 17.5852 17.24 17.5751 17.2733C17.5476 17.3637 17.4701 17.6177 17.4591 17.6566C17.4517 17.6312 17.4446 17.6057 17.4382 17.5806C17.4165 17.4937 17.3982 17.4061 17.3831 17.3178C17.3528 17.1402 17.3337 16.9604 17.3273 16.7803C17.321 16.6006 17.3266 16.4207 17.3455 16.2419C17.3644 16.0618 17.4003 15.8867 17.4311 15.7086C17.4324 15.7009 17.421 15.6969 17.4178 15.7044C17.3471 15.8735 17.3045 16.059 17.2741 16.2394C17.244 16.4179 17.2275 16.5986 17.2247 16.7796C17.2219 16.9635 17.233 17.1473 17.2598 17.3292C17.2736 17.4234 17.2912 17.5169 17.3123 17.6096C17.3324 17.6983 17.3515 17.7926 17.3973 17.8719C17.4272 17.9239 17.4916 17.8836 17.4976 17.8345C17.5012 17.8049 17.5891 17.451 17.6032 17.3992C17.6475 17.5789 17.699 17.7552 17.7725 17.9265C17.8584 18.1271 17.9626 18.3197 18.0888 18.4978C18.1005 18.5141 18.1224 18.4969 18.1134 18.4803Z" fill="#455A64"/>
<path d="M17.1815 4.67355C17.1815 4.67355 17.9411 5.26739 18.2586 5.43757C18.5762 5.60776 19.5937 5.91931 19.5937 5.91931C19.5937 5.91931 20.871 7.19935 21.6246 7.81464C22.1259 8.22394 24.1567 8.9044 24.1567 8.9044C24.1567 8.9044 24.4545 9.69194 24.6711 9.92774C24.8877 10.1635 25.3303 10.5683 25.3303 10.5683C25.3303 10.5683 25.9069 8.80585 25.8176 7.96014C25.7283 7.11444 23.8582 4.72238 23.7525 4.60183C23.4431 4.24908 19.9698 3.56306 19.0754 3.71736C18.1811 3.87156 17.1815 4.67355 17.1815 4.67355Z" fill="#FFC727"/>
<g opacity="0.2">
<path d="M23.1573 4.37209C22.8961 4.30621 22.6322 4.27596 22.3629 4.27982C22.089 4.28368 21.8235 4.34086 21.5639 4.42622C21.0671 4.58949 20.6235 4.86568 20.2225 5.19751C20.1142 5.28718 20.0095 5.38179 19.9092 5.48043C19.8041 5.58383 19.6971 5.69244 19.6109 5.812C19.6064 5.81819 19.6136 5.82708 19.6204 5.82223C19.7221 5.74845 19.8149 5.66291 19.9134 5.58464C20.0099 5.50781 20.1061 5.43106 20.2047 5.35701C20.4053 5.20658 20.613 5.06862 20.8319 4.94619C21.2812 4.69469 21.7595 4.52926 22.2654 4.436C22.5559 4.38242 22.8583 4.36599 23.1518 4.40252C23.1718 4.40495 23.1765 4.37694 23.1573 4.37209Z" fill="black"/>
<path d="M24.338 5.48856C24.1762 5.2016 23.9924 4.92497 23.7818 4.6714C23.7753 4.6635 23.7627 4.67212 23.7687 4.68082C23.9327 4.9185 24.0885 5.15995 24.2192 5.41774C24.3468 5.66933 24.442 5.93681 24.5196 6.20761C24.6757 6.75299 24.6684 7.32421 24.5249 7.87173C24.4412 8.19154 24.3217 8.50498 24.1978 8.81114C24.1944 8.81958 24.2061 8.82497 24.2105 8.81707C24.5022 8.29593 24.7706 7.74293 24.7915 7.13446C24.8115 6.55166 24.621 5.99067 24.338 5.48856Z" fill="black"/>
<path d="M24.9795 6.94303C24.9785 6.93585 24.9683 6.93684 24.9684 6.94411C24.9701 7.08198 24.9707 7.21922 24.9462 7.35529C24.9228 7.48562 24.9009 7.61622 24.8747 7.7461C24.849 7.87302 24.8169 7.99725 24.7833 8.12219C24.7653 8.18924 24.7465 8.25737 24.7231 8.3228C24.7102 8.35906 24.6763 8.41319 24.7014 8.44918C24.7042 8.45322 24.7104 8.45537 24.715 8.45331C24.7255 8.44864 24.7271 8.44711 24.7285 8.43518C24.729 8.4306 24.7263 8.4271 24.722 8.42584C24.7464 8.3911 24.8057 8.27801 24.8121 8.26553C24.8423 8.20701 24.8681 8.14544 24.8898 8.08323C24.9316 7.96305 24.9661 7.84116 24.9886 7.71585C25.0108 7.59253 25.0184 7.46336 25.0097 7.33842C25.0004 7.20647 24.999 7.07426 24.9795 6.94303Z" fill="black"/>
<path d="M19.7063 3.84302C19.5146 3.85109 19.3215 3.89777 19.1361 3.94391C18.9436 3.99184 18.7598 4.05673 18.581 4.14281C18.4056 4.22736 18.2394 4.33319 18.0839 4.44987C17.9288 4.5662 17.7907 4.69509 17.6545 4.83206C17.6489 4.83763 17.6579 4.84741 17.6639 4.8423C17.9569 4.59708 18.2962 4.40849 18.6402 4.24576C18.8118 4.16462 18.988 4.08895 19.1663 4.02406C19.3456 3.95889 19.5294 3.92129 19.7133 3.87345C19.7313 3.86878 19.7232 3.8423 19.7063 3.84302Z" fill="black"/>
<path d="M22.1566 4.7952C21.697 4.84995 21.2604 5.04814 20.9438 5.38976C20.9338 5.40053 20.9491 5.41435 20.9604 5.40762C21.1539 5.29219 21.3502 5.18583 21.5512 5.08395C21.6475 5.03512 21.7441 4.98495 21.8426 4.94088C21.9473 4.89402 22.0541 4.85695 22.1619 4.81835C22.1745 4.81369 22.1701 4.79358 22.1566 4.7952Z" fill="black"/>
</g>
<path d="M22.6952 3.90953C22.6952 3.90953 21.6843 3.99938 21.4758 4.05521C21.2673 4.11104 21.2451 4.47214 21.3726 4.52061C21.5002 4.56908 22.4739 4.57105 22.4739 4.57105C22.4739 4.57105 22.1323 5.44754 22.154 5.57078C22.1755 5.69393 22.3501 5.94292 22.4426 5.95567C22.5352 5.9685 22.9704 5.90504 23.0381 5.84553C23.1058 5.78602 23.4955 5.19424 23.4955 5.19424C23.4955 5.19424 23.9876 5.75497 24.1079 5.82453C24.2282 5.89409 24.4203 5.96123 24.4853 5.90612C24.5503 5.85101 24.5851 5.65973 24.5906 5.58837C24.5962 5.51702 24.0449 4.59098 24.0449 4.59098C24.0449 4.59098 25.0059 3.65265 25.0901 3.60355C25.1743 3.55445 26.9402 3.41021 26.9926 3.40608C27.045 3.40195 26.5748 2.23267 26.5366 2.11679C26.4984 2.00091 25.0302 1.06985 24.8994 1.11006C24.7686 1.15027 23.3939 2.06841 23.2737 2.24344C23.1533 2.41838 22.6952 3.90953 22.6952 3.90953Z" fill="#37474F"/>
<path d="M26.9923 3.40635C26.9923 3.40635 25.2933 2.47143 25.2232 2.30474C25.154 2.1369 24.8987 1.11015 24.8987 1.11015C25.0302 1.07021 26.4984 2.00109 26.5362 2.11688C26.5751 2.23267 27.0446 3.40141 26.9923 3.40635Z" fill="#455A64"/>
</svg>