<svg width="116" height="102" viewBox="0 0 116 102" fill="none" xmlns="http://www.w3.org/2000/svg">
<path d="M128.482 69.3819V78.526C128.482 80.0434 128.411 81.574 128.27 83.0914C126.285 103.97 110.761 117.614 88.3622 117.614H27.119C15.7777 117.614 6.20847 114.175 -0.66721 107.939C-3.36077 105.627 -5.62904 102.91 -7.40112 99.7959C-5.06197 97.1388 -2.43929 94.2299 0.112506 91.3144C4.43639 86.4773 8.6185 81.6999 11.2412 78.5922C15.1398 74.0865 25.4178 62.2257 39.6654 67.7917C42.5716 68.9181 45.1234 70.5084 47.4625 71.8999C53.2041 75.478 55.6141 76.5381 59.6545 74.484C64.1201 72.2312 67.0263 67.7917 70.0743 63.1534C71.7046 60.6951 73.3349 58.3163 75.107 56.1297C82.8333 46.7206 94.7417 44.2026 104.665 49.7686C109.627 52.5516 113.88 56.0634 117.85 59.6349C118.7 60.43 119.551 61.1655 120.331 61.8944C121.394 62.8883 124.938 66.2014 128.482 69.3819Z" fill="#C9CCCC"/>
<path opacity="0.2" d="M88.434 -14.5703H27.1199C3.09051 -14.5703 -13 1.13361 -13 24.5172V78.5268C-13 86.6703 -11.0153 93.8994 -7.40022 99.7967C-5.06107 97.1396 -2.43839 94.2307 0.11341 91.3086C4.43729 86.4782 8.6194 81.7007 11.2421 78.5931C15.1407 74.0873 25.4187 62.2265 39.6663 67.7925C42.5725 68.9189 45.1243 70.5092 47.4635 71.9007C53.205 75.4788 55.615 76.539 59.6554 74.4782C64.121 72.232 67.0272 67.7925 70.0752 63.1476C71.7055 60.6959 73.3359 58.3171 75.1079 56.1305C82.8342 46.7214 94.7426 44.2034 104.666 49.7694C109.628 52.5524 113.881 56.0642 117.851 59.6357C118.701 60.4308 119.552 61.1663 120.331 61.8952C121.395 62.8825 124.939 66.1956 128.483 69.3827V24.5172C128.483 1.13361 112.393 -14.5703 88.434 -14.5703Z" fill="#C3C2C2"/>
<path d="M46 34C46 41.0932 39.6346 47 31.9973 47C24.3654 47 18 41.0932 18 34C18 26.9118 24.3654 21 31.9973 21C39.6346 21 46 26.9118 46 34Z" fill="#C9CCCC"/>
</svg>