<svg width="32" height="19" viewBox="0 0 32 19" fill="none" xmlns="http://www.w3.org/2000/svg">
<rect width="32" height="19" rx="3" fill="#F7CA00"/>
<path d="M10.9773 5.27273V14H9.95455L5.19886 7.14773H5.11364V14H4.05682V5.27273H5.07955L9.85227 12.142H9.9375V5.27273H10.9773ZM15.6999 14.1364C15.0692 14.1364 14.5252 13.9972 14.0678 13.7188C13.6133 13.4375 13.2624 13.0455 13.0153 12.5426C12.771 12.0369 12.6488 11.4489 12.6488 10.7784C12.6488 10.108 12.771 9.51705 13.0153 9.00568C13.2624 8.49148 13.6062 8.09091 14.0465 7.80398C14.4897 7.5142 15.0067 7.36932 15.5977 7.36932C15.9386 7.36932 16.2752 7.42614 16.6076 7.53977C16.94 7.65341 17.2425 7.83807 17.5153 8.09375C17.788 8.34659 18.0053 8.68182 18.1673 9.09943C18.3292 9.51705 18.4102 10.0312 18.4102 10.642V11.0682H13.3647V10.1989H17.3874C17.3874 9.82955 17.3136 9.5 17.1658 9.21023C17.021 8.92045 16.8136 8.69176 16.5437 8.52415C16.2766 8.35653 15.9613 8.27273 15.5977 8.27273C15.1971 8.27273 14.8505 8.37216 14.5579 8.57102C14.2681 8.76705 14.0451 9.02273 13.8888 9.33807C13.7326 9.65341 13.6545 9.99148 13.6545 10.3523V10.9318C13.6545 11.4261 13.7397 11.8452 13.9102 12.1889C14.0835 12.5298 14.3235 12.7898 14.6303 12.9688C14.9371 13.1449 15.2937 13.233 15.6999 13.233C15.9641 13.233 16.2028 13.196 16.4158 13.1222C16.6317 13.0455 16.8178 12.9318 16.9741 12.7812C17.1303 12.6278 17.2511 12.4375 17.3363 12.2102L18.3079 12.483C18.2056 12.8125 18.0337 13.1023 17.7923 13.3523C17.5508 13.5994 17.2525 13.7926 16.8974 13.9318C16.5423 14.0682 16.1431 14.1364 15.6999 14.1364ZM21.4229 14L19.4286 7.45455H20.4854L21.9002 12.4659H21.9684L23.3661 7.45455H24.44L25.8207 12.4489H25.8888L27.3036 7.45455H28.3604L26.3661 14H25.3775L23.9457 8.97159H23.8434L22.4116 14H21.4229Z" fill="#0F1111"/>
</svg>