<svg width="168" height="57" viewBox="0 0 168 57" fill="none" xmlns="http://www.w3.org/2000/svg">
<g filter="url(#filter0_d_1880_39542)">
<rect x="8" y="6.89551" width="40.2094" height="40.2094" rx="5.41281" fill="white"/>
<rect x="15.5605" y="17.666" width="20.4582" height="4.89393" rx="0.623976" fill="#FF3A3A"/>
<rect x="15.5605" y="25.0557" width="24.959" height="4.89393" rx="0.623976" fill="#FF3A3A"/>
<rect x="15.5605" y="32.4473" width="16.3666" height="4.89393" rx="0.623976" fill="#0E081A"/>
</g>
<path d="M69.0336 13.6152C68.9899 13.1353 68.7958 12.7622 68.4511 12.4961C68.1108 12.2256 67.6243 12.0903 66.9917 12.0903C66.5728 12.0903 66.2238 12.1449 65.9446 12.2539C65.6653 12.363 65.4559 12.5135 65.3163 12.7055C65.1767 12.8931 65.1047 13.1091 65.1003 13.3534C65.0916 13.5541 65.1309 13.7308 65.2181 13.8835C65.3098 14.0362 65.4406 14.1715 65.6108 14.2893C65.7853 14.4027 65.9947 14.5031 66.2391 14.5903C66.4834 14.6776 66.7583 14.7539 67.0637 14.8194L68.2155 15.0812C68.8787 15.2251 69.4633 15.4171 69.9694 15.6571C70.4799 15.897 70.9075 16.1828 71.2522 16.5144C71.6012 16.846 71.8652 17.2277 72.044 17.6597C72.2229 18.0916 72.3146 18.5759 72.3189 19.1126C72.3146 19.959 72.1008 20.6854 71.6776 21.2919C71.2543 21.8983 70.6457 22.363 69.8516 22.6859C69.0619 23.0087 68.1086 23.1702 66.9917 23.1702C65.8704 23.1702 64.8931 23.0022 64.0598 22.6662C63.2264 22.3303 62.5785 21.8198 62.116 21.1348C61.6536 20.4498 61.4158 19.5838 61.4027 18.5366H64.5048C64.531 18.9686 64.6466 19.3285 64.8516 19.6165C65.0567 19.9045 65.3381 20.1226 65.6959 20.2709C66.058 20.4193 66.4769 20.4935 66.9524 20.4935C67.3887 20.4935 67.7596 20.4346 68.065 20.3168C68.3748 20.199 68.6125 20.0353 68.7783 19.8259C68.9441 19.6165 69.0292 19.3765 69.0336 19.106C69.0292 18.853 68.9507 18.637 68.798 18.4581C68.6453 18.2749 68.4097 18.1178 68.0912 17.9869C67.777 17.8517 67.3756 17.7273 66.887 17.6139L65.4865 17.2866C64.3259 17.0205 63.4118 16.5908 62.7443 15.9974C62.0768 15.3997 61.7452 14.5925 61.7495 13.5759C61.7452 12.7469 61.9677 12.0205 62.4171 11.3966C62.8665 10.7727 63.4882 10.2862 64.2823 9.93717C65.0763 9.58813 65.9817 9.41361 66.9982 9.41361C68.0366 9.41361 68.9376 9.59031 69.7011 9.94372C70.469 10.2928 71.0646 10.7836 71.4878 11.4162C71.911 12.0489 72.1269 12.7818 72.1357 13.6152H69.0336ZM73.955 23V9.59686H83.3006V12.2277H77.1946V14.9764H82.8228V17.6139H77.1946V20.3691H83.3006V23H73.955ZM85.3294 23V9.59686H88.5689V20.3691H94.1448V23H85.3294ZM95.8219 23V9.59686H99.0614V20.3691H104.637V23H95.8219ZM106.314 23V9.59686H115.66V12.2277H109.554V14.9764H115.182V17.6139H109.554V20.3691H115.66V23H106.314ZM117.689 23V9.59686H123.225C124.229 9.59686 125.095 9.77792 125.823 10.1401C126.556 10.4978 127.121 11.0127 127.519 11.6846C127.916 12.3521 128.114 13.144 128.114 14.0602C128.114 14.9895 127.911 15.7792 127.505 16.4293C127.1 17.075 126.524 17.5681 125.778 17.9084C125.032 18.2443 124.148 18.4123 123.127 18.4123H119.626V15.8599H122.525C123.014 15.8599 123.422 15.7967 123.749 15.6702C124.08 15.5393 124.331 15.3429 124.502 15.0812C124.672 14.815 124.757 14.4747 124.757 14.0602C124.757 13.6457 124.672 13.3032 124.502 13.0327C124.331 12.7579 124.08 12.5528 123.749 12.4175C123.417 12.2779 123.009 12.2081 122.525 12.2081H120.928V23H117.689ZM125.234 16.8743L128.572 23H125.038L121.766 16.8743H125.234ZM64.688 45H61.2064L65.7286 31.5969H70.0414L74.5637 45H71.082L67.9341 34.9738H67.8294L64.688 45ZM64.2234 39.7251H71.5009V42.1859H64.2234V39.7251ZM82.8376 35.6152C82.7939 35.1353 82.5998 34.7622 82.2551 34.4961C81.9148 34.2256 81.4283 34.0903 80.7957 34.0903C80.3768 34.0903 80.0278 34.1449 79.7486 34.2539C79.4693 34.363 79.2599 34.5135 79.1203 34.7055C78.9807 34.8931 78.9087 35.1091 78.9043 35.3534C78.8956 35.5541 78.9349 35.7308 79.0221 35.8835C79.1137 36.0362 79.2446 36.1715 79.4148 36.2893C79.5893 36.4027 79.7987 36.5031 80.0431 36.5903C80.2874 36.6776 80.5623 36.7539 80.8677 36.8194L82.0195 37.0812C82.6827 37.2251 83.2673 37.4171 83.7734 37.6571C84.2839 37.897 84.7115 38.1828 85.0562 38.5144C85.4052 38.846 85.6692 39.2277 85.848 39.6597C86.0269 40.0916 86.1185 40.5759 86.1229 41.1126C86.1185 41.959 85.9048 42.6854 85.4815 43.2919C85.0583 43.8983 84.4497 44.363 83.6556 44.6859C82.8659 45.0087 81.9126 45.1702 80.7957 45.1702C79.6744 45.1702 78.6971 45.0022 77.8637 44.6662C77.0304 44.3303 76.3825 43.8198 75.92 43.1348C75.4576 42.4498 75.2198 41.5838 75.2067 40.5366H78.3088C78.335 40.9686 78.4506 41.3285 78.6556 41.6165C78.8607 41.9045 79.1421 42.1226 79.4999 42.2709C79.862 42.4193 80.2808 42.4935 80.7564 42.4935C81.1927 42.4935 81.5636 42.4346 81.869 42.3168C82.1788 42.199 82.4165 42.0353 82.5823 41.8259C82.7481 41.6165 82.8332 41.3765 82.8376 41.106C82.8332 40.853 82.7547 40.637 82.602 40.4581C82.4493 40.2749 82.2137 40.1178 81.8952 39.9869C81.581 39.8517 81.1796 39.7273 80.691 39.6139L79.2904 39.2866C78.1299 39.0205 77.2158 38.5908 76.5483 37.9974C75.8808 37.3997 75.5492 36.5925 75.5535 35.5759C75.5492 34.7469 75.7717 34.0205 76.2211 33.3966C76.6705 32.7727 77.2922 32.2862 78.0863 31.9372C78.8803 31.5881 79.7856 31.4136 80.8022 31.4136C81.8406 31.4136 82.7416 31.5903 83.5051 31.9437C84.273 32.2928 84.8685 32.7836 85.2918 33.4162C85.715 34.0489 85.9309 34.7818 85.9397 35.6152H82.8376ZM95.0038 35.6152C94.9602 35.1353 94.766 34.7622 94.4213 34.4961C94.081 34.2256 93.5945 34.0903 92.9619 34.0903C92.5431 34.0903 92.194 34.1449 91.9148 34.2539C91.6356 34.363 91.4261 34.5135 91.2865 34.7055C91.1469 34.8931 91.0749 35.1091 91.0706 35.3534C91.0618 35.5541 91.1011 35.7308 91.1884 35.8835C91.28 36.0362 91.4109 36.1715 91.581 36.2893C91.7555 36.4027 91.965 36.5031 92.2093 36.5903C92.4536 36.6776 92.7285 36.7539 93.0339 36.8194L94.1857 37.0812C94.8489 37.2251 95.4336 37.4171 95.9397 37.6571C96.4501 37.897 96.8777 38.1828 97.2224 38.5144C97.5714 38.846 97.8354 39.2277 98.0143 39.6597C98.1932 40.0916 98.2848 40.5759 98.2891 41.1126C98.2848 41.959 98.071 42.6854 97.6478 43.2919C97.2246 43.8983 96.6159 44.363 95.8219 44.6859C95.0322 45.0087 94.0788 45.1702 92.9619 45.1702C91.8406 45.1702 90.8633 45.0022 90.03 44.6662C89.1966 44.3303 88.5487 43.8198 88.0863 43.1348C87.6238 42.4498 87.386 41.5838 87.3729 40.5366H90.475C90.5012 40.9686 90.6168 41.3285 90.8219 41.6165C91.0269 41.9045 91.3083 42.1226 91.6661 42.2709C92.0282 42.4193 92.4471 42.4935 92.9226 42.4935C93.3589 42.4935 93.7298 42.4346 94.0352 42.3168C94.345 42.199 94.5828 42.0353 94.7486 41.8259C94.9144 41.6165 94.9994 41.3765 95.0038 41.106C94.9994 40.853 94.9209 40.637 94.7682 40.4581C94.6155 40.2749 94.3799 40.1178 94.0614 39.9869C93.7473 39.8517 93.3459 39.7273 92.8572 39.6139L91.4567 39.2866C90.2961 39.0205 89.3821 38.5908 88.7145 37.9974C88.047 37.3997 87.7154 36.5925 87.7198 35.5759C87.7154 34.7469 87.9379 34.0205 88.3873 33.3966C88.8367 32.7727 89.4584 32.2862 90.2525 31.9372C91.0466 31.5881 91.9519 31.4136 92.9685 31.4136C94.0069 31.4136 94.9078 31.5903 95.6713 31.9437C96.4392 32.2928 97.0348 32.7836 97.458 33.4162C97.8812 34.0489 98.0972 34.7818 98.1059 35.6152H95.0038ZM103.165 31.5969V45H99.9253V31.5969H103.165ZM112.443 35.6152C112.4 35.1353 112.205 34.7622 111.861 34.4961C111.52 34.2256 111.034 34.0903 110.401 34.0903C109.983 34.0903 109.633 34.1449 109.354 34.2539C109.075 34.363 108.866 34.5135 108.726 34.7055C108.586 34.8931 108.514 35.1091 108.51 35.3534C108.501 35.5541 108.541 35.7308 108.628 35.8835C108.719 36.0362 108.85 36.1715 109.02 36.2893C109.195 36.4027 109.404 36.5031 109.649 36.5903C109.893 36.6776 110.168 36.7539 110.473 36.8194L111.625 37.0812C112.288 37.2251 112.873 37.4171 113.379 37.6571C113.89 37.897 114.317 38.1828 114.662 38.5144C115.011 38.846 115.275 39.2277 115.454 39.6597C115.633 40.0916 115.724 40.5759 115.729 41.1126C115.724 41.959 115.51 42.6854 115.087 43.2919C114.664 43.8983 114.055 44.363 113.261 44.6859C112.472 45.0087 111.518 45.1702 110.401 45.1702C109.28 45.1702 108.303 45.0022 107.469 44.6662C106.636 44.3303 105.988 43.8198 105.526 43.1348C105.063 42.4498 104.825 41.5838 104.812 40.5366H107.914C107.941 40.9686 108.056 41.3285 108.261 41.6165C108.466 41.9045 108.748 42.1226 109.106 42.2709C109.468 42.4193 109.887 42.4935 110.362 42.4935C110.798 42.4935 111.169 42.4346 111.475 42.3168C111.784 42.199 112.022 42.0353 112.188 41.8259C112.354 41.6165 112.439 41.3765 112.443 41.106C112.439 40.853 112.36 40.637 112.208 40.4581C112.055 40.2749 111.819 40.1178 111.501 39.9869C111.187 39.8517 110.785 39.7273 110.297 39.6139L108.896 39.2866C107.736 39.0205 106.822 38.5908 106.154 37.9974C105.486 37.3997 105.155 36.5925 105.159 35.5759C105.155 34.7469 105.377 34.0205 105.827 33.3966C106.276 32.7727 106.898 32.2862 107.692 31.9372C108.486 31.5881 109.391 31.4136 110.408 31.4136C111.446 31.4136 112.347 31.5903 113.111 31.9437C113.879 32.2928 114.474 32.7836 114.897 33.4162C115.321 34.0489 115.537 34.7818 115.545 35.6152H112.443ZM116.926 34.2277V31.5969H128.255V34.2277H124.191V45H120.997V34.2277H116.926ZM131.062 45H127.581L132.103 31.5969H136.416L140.938 45H137.456L134.308 34.9738H134.204L131.062 45ZM130.598 39.7251H137.875V42.1859H130.598V39.7251ZM153.788 31.5969V45H151.039L145.706 37.2644H145.621V45H142.381V31.5969H145.169L150.444 39.3194H150.555V31.5969H153.788ZM155.387 34.2277V31.5969H166.715V34.2277H162.651V45H159.457V34.2277H155.387Z" fill="#0E081A"/>
<defs>
<filter id="filter0_d_1880_39542" x="0.267419" y="0.709443" width="55.6741" height="55.6746" filterUnits="userSpaceOnUse" color-interpolation-filters="sRGB">
<feFlood flood-opacity="0" result="BackgroundImageFix"/>
<feColorMatrix in="SourceAlpha" type="matrix" values="0 0 0 0 0 0 0 0 0 0 0 0 0 0 0 0 0 0 127 0" result="hardAlpha"/>
<feOffset dy="1.54652"/>
<feGaussianBlur stdDeviation="3.86629"/>
<feComposite in2="hardAlpha" operator="out"/>
<feColorMatrix type="matrix" values="0 0 0 0 0.054902 0 0 0 0 0.0313726 0 0 0 0 0.101961 0 0 0 0.12 0"/>
<feBlend mode="normal" in2="BackgroundImageFix" result="effect1_dropShadow_1880_39542"/>
<feBlend mode="normal" in="SourceGraphic" in2="effect1_dropShadow_1880_39542" result="shape"/>
</filter>
</defs>
</svg>
