<svg width="125" height="126" viewBox="0 0 125 126" fill="none" xmlns="http://www.w3.org/2000/svg">
    <g filter="url(#filter0_d_6770_8973)">
        <rect x="25" y="20" width="75" height="75" rx="37.5" fill="white"/>
    </g>
<path d="M41.2969 47.1519C41.2969 46.9674 41.2679 46.8047 41.2101 46.6636C41.1558 46.519 41.0582 46.3887 40.9171 46.273C40.7797 46.1573 40.588 46.0469 40.342 45.9421C40.0997 45.8372 39.7922 45.7305 39.4197 45.622C39.0291 45.5062 38.6764 45.3778 38.3618 45.2368C38.0471 45.0921 37.7776 44.9275 37.5534 44.7431C37.3291 44.5586 37.1573 44.347 37.038 44.1083C36.9186 43.8696 36.8589 43.5965 36.8589 43.2891C36.8589 42.9816 36.9222 42.6977 37.0488 42.4373C37.1754 42.1769 37.3563 41.9508 37.5914 41.7591C37.8301 41.5638 38.114 41.4119 38.4431 41.3034C38.7723 41.1949 39.1394 41.1406 39.5445 41.1406C40.1377 41.1406 40.6404 41.2546 41.0527 41.4824C41.4687 41.7067 41.7852 42.0014 42.0022 42.3668C42.2192 42.7284 42.3277 43.1155 42.3277 43.5278H41.286C41.286 43.2312 41.2227 42.969 41.0961 42.7411C40.9695 42.5096 40.7778 42.3288 40.5211 42.1986C40.2643 42.0647 39.9387 41.9978 39.5445 41.9978C39.1719 41.9978 38.8645 42.0539 38.6222 42.166C38.3798 42.2781 38.199 42.43 38.0796 42.6217C37.9639 42.8134 37.906 43.0323 37.906 43.2782C37.906 43.4446 37.9404 43.5965 38.0091 43.7339C38.0815 43.8678 38.1918 43.9925 38.3401 44.1083C38.492 44.224 38.6837 44.3307 38.9151 44.4284C39.1502 44.526 39.4306 44.6201 39.7561 44.7105C40.2046 44.8371 40.5916 44.9782 40.9171 45.1337C41.2426 45.2892 41.5103 45.4646 41.7201 45.6599C41.9334 45.8516 42.0908 46.0705 42.1921 46.3164C42.2969 46.5587 42.3494 46.8336 42.3494 47.1411C42.3494 47.463 42.2843 47.7541 42.1541 48.0145C42.0239 48.275 41.8376 48.4974 41.5953 48.6819C41.3529 48.8663 41.0618 49.0092 40.7218 49.1105C40.3854 49.2081 40.0093 49.2569 39.5933 49.2569C39.228 49.2569 38.8681 49.2063 38.5137 49.105C38.1628 49.0038 37.8427 48.8519 37.5534 48.6493C37.2677 48.4468 37.038 48.1972 36.8644 47.9006C36.6944 47.6004 36.6094 47.2532 36.6094 46.8589H37.651C37.651 47.1302 37.7035 47.3635 37.8084 47.5588C37.9133 47.7505 38.0561 47.9096 38.237 48.0362C38.4214 48.1628 38.6294 48.2569 38.8609 48.3184C39.096 48.3762 39.3401 48.4052 39.5933 48.4052C39.9586 48.4052 40.2679 48.3545 40.5211 48.2533C40.7742 48.152 40.9659 48.0073 41.0961 47.8192C41.23 47.6311 41.2969 47.4087 41.2969 47.1519ZM48.7025 48.2967V49.1484H44.5195V48.2967H48.7025ZM44.7311 41.2491V49.1484H43.684V41.2491H44.7311ZM48.1491 44.6454V45.4972H44.5195V44.6454H48.1491ZM48.6482 41.2491V42.1063H44.5195V41.2491H48.6482ZM54.7897 48.2967V49.1484H50.8401V48.2967H54.7897ZM51.0462 41.2491V49.1484H49.9991V41.2491H51.0462ZM60.7793 48.2967V49.1484H56.8296V48.2967H60.7793ZM57.0358 41.2491V49.1484H55.9887V41.2491H57.0358ZM66.9967 48.2967V49.1484H62.8138V48.2967H66.9967ZM63.0254 41.2491V49.1484H61.9783V41.2491H63.0254ZM66.4434 44.6454V45.4972H62.8138V44.6454H66.4434ZM66.9425 41.2491V42.1063H62.8138V41.2491H66.9425ZM68.2934 41.2491H70.9084C71.5016 41.2491 72.0025 41.3396 72.4112 41.5204C72.8236 41.7012 73.1364 41.9689 73.3498 42.3234C73.5668 42.6742 73.6753 43.1064 73.6753 43.62C73.6753 43.9817 73.6012 44.3126 73.4529 44.6128C73.3082 44.9094 73.0985 45.1626 72.8236 45.3724C72.5523 45.5786 72.2268 45.7323 71.847 45.8336L71.554 45.9475H69.0964L69.0855 45.0957H70.941C71.3171 45.0957 71.63 45.0306 71.8796 44.9004C72.1291 44.7666 72.3172 44.5875 72.4438 44.3633C72.5704 44.139 72.6337 43.8913 72.6337 43.62C72.6337 43.3162 72.574 43.0503 72.4546 42.8225C72.3353 42.5946 72.1472 42.4192 71.8904 42.2962C71.6372 42.1696 71.3099 42.1063 70.9084 42.1063H69.3405V49.1484H68.2934V41.2491ZM72.9104 49.1484L70.9898 45.5677L72.0803 45.5623L74.028 49.0833V49.1484H72.9104ZM40.0111 54.949L37.3961 62.1484H36.3273L39.3383 54.2491H40.0273L40.0111 54.949ZM42.2029 62.1484L39.5825 54.949L39.5662 54.2491H40.2552L43.2771 62.1484H42.2029ZM42.0673 59.2242V60.0814H37.6293V59.2242H42.0673ZM48.5451 60.1519C48.5451 59.9674 48.5162 59.8047 48.4583 59.6636C48.4041 59.519 48.3064 59.3887 48.1654 59.273C48.0279 59.1573 47.8362 59.0469 47.5903 58.9421C47.3479 58.8372 47.0405 58.7305 46.668 58.622C46.2773 58.5062 45.9247 58.3778 45.61 58.2368C45.2954 58.0921 45.0259 57.9275 44.8016 57.7431C44.5774 57.5586 44.4056 57.347 44.2862 57.1083C44.1669 56.8696 44.1072 56.5965 44.1072 56.2891C44.1072 55.9816 44.1705 55.6977 44.2971 55.4373C44.4237 55.1769 44.6045 54.9508 44.8396 54.7591C45.0783 54.5638 45.3623 54.4119 45.6914 54.3034C46.0205 54.1949 46.3877 54.1406 46.7928 54.1406C47.3859 54.1406 47.8887 54.2546 48.301 54.4824C48.7169 54.7067 49.0334 55.0014 49.2504 55.3668C49.4674 55.7284 49.576 56.1155 49.576 56.5278H48.5343C48.5343 56.2312 48.471 55.969 48.3444 55.7411C48.2178 55.5096 48.0261 55.3288 47.7693 55.1986C47.5125 55.0647 47.187 54.9978 46.7928 54.9978C46.4202 54.9978 46.1128 55.0539 45.8704 55.166C45.6281 55.2781 45.4473 55.43 45.3279 55.6217C45.2122 55.8134 45.1543 56.0323 45.1543 56.2782C45.1543 56.4446 45.1887 56.5965 45.2574 56.7339C45.3297 56.8678 45.44 56.9925 45.5883 57.1083C45.7402 57.224 45.9319 57.3307 46.1634 57.4284C46.3985 57.526 46.6788 57.6201 47.0043 57.7105C47.4528 57.8371 47.8398 57.9782 48.1654 58.1337C48.4909 58.2892 48.7585 58.4646 48.9683 58.6599C49.1817 58.8516 49.339 59.0705 49.4403 59.3164C49.5452 59.5587 49.5977 59.8336 49.5977 60.1411C49.5977 60.463 49.5326 60.7541 49.4023 61.0145C49.2721 61.275 49.0859 61.4974 48.8435 61.6819C48.6012 61.8663 48.31 62.0092 47.9701 62.1105C47.6337 62.2081 47.2575 62.2569 46.8416 62.2569C46.4763 62.2569 46.1164 62.2063 45.7619 62.105C45.4111 62.0038 45.091 61.8519 44.8016 61.6493C44.5159 61.4468 44.2862 61.1972 44.1126 60.9006C43.9426 60.6004 43.8576 60.2532 43.8576 59.8589H44.8993C44.8993 60.1302 44.9518 60.3635 45.0566 60.5588C45.1615 60.7505 45.3044 60.9096 45.4852 61.0362C45.6697 61.1628 45.8777 61.2569 46.1092 61.3184C46.3443 61.3762 46.5884 61.4052 46.8416 61.4052C47.2069 61.4052 47.5161 61.3545 47.7693 61.2533C48.0225 61.152 48.2142 61.0073 48.3444 60.8192C48.4782 60.6311 48.5451 60.4087 48.5451 60.1519ZM55.1424 60.1519C55.1424 59.9674 55.1134 59.8047 55.0556 59.6636C55.0013 59.519 54.9036 59.3887 54.7626 59.273C54.6251 59.1573 54.4334 59.0469 54.1875 58.9421C53.9452 58.8372 53.6377 58.7305 53.2652 58.622C52.8746 58.5062 52.5219 58.3778 52.2072 58.2368C51.8926 58.0921 51.6231 57.9275 51.3989 57.7431C51.1746 57.5586 51.0028 57.347 50.8835 57.1083C50.7641 56.8696 50.7044 56.5965 50.7044 56.2891C50.7044 55.9816 50.7677 55.6977 50.8943 55.4373C51.0209 55.1769 51.2018 54.9508 51.4368 54.7591C51.6756 54.5638 51.9595 54.4119 52.2886 54.3034C52.6178 54.1949 52.9849 54.1406 53.39 54.1406C53.9831 54.1406 54.4859 54.2546 54.8982 54.4824C55.3142 54.7067 55.6306 55.0014 55.8477 55.3668C56.0647 55.7284 56.1732 56.1155 56.1732 56.5278H55.1315C55.1315 56.2312 55.0682 55.969 54.9416 55.7411C54.815 55.5096 54.6233 55.3288 54.3665 55.1986C54.1097 55.0647 53.7842 54.9978 53.39 54.9978C53.0174 54.9978 52.71 55.0539 52.4677 55.166C52.2253 55.2781 52.0445 55.43 51.9251 55.6217C51.8094 55.8134 51.7515 56.0323 51.7515 56.2782C51.7515 56.4446 51.7859 56.5965 51.8546 56.7339C51.9269 56.8678 52.0373 56.9925 52.1855 57.1083C52.3375 57.224 52.5292 57.3307 52.7606 57.4284C52.9957 57.526 53.276 57.6201 53.6016 57.7105C54.0501 57.8371 54.4371 57.9782 54.7626 58.1337C55.0881 58.2892 55.3558 58.4646 55.5655 58.6599C55.7789 58.8516 55.9363 59.0705 56.0375 59.3164C56.1424 59.5587 56.1949 59.8336 56.1949 60.1411C56.1949 60.463 56.1298 60.7541 55.9996 61.0145C55.8694 61.275 55.6831 61.4974 55.4408 61.6819C55.1984 61.8663 54.9073 62.0092 54.5673 62.1105C54.2309 62.2081 53.8547 62.2569 53.4388 62.2569C53.0735 62.2569 52.7136 62.2063 52.3592 62.105C52.0083 62.0038 51.6882 61.8519 51.3989 61.6493C51.1131 61.4468 50.8835 61.1972 50.7099 60.9006C50.5399 60.6004 50.4549 60.2532 50.4549 59.8589H51.4965C51.4965 60.1302 51.549 60.3635 51.6539 60.5588C51.7588 60.7505 51.9016 60.9096 52.0825 61.0362C52.2669 61.1628 52.4749 61.2569 52.7064 61.3184C52.9415 61.3762 53.1856 61.4052 53.4388 61.4052C53.8041 61.4052 54.1134 61.3545 54.3665 61.2533C54.6197 61.152 54.8114 61.0073 54.9416 60.8192C55.0754 60.6311 55.1424 60.4087 55.1424 60.1519ZM58.6526 54.2491V62.1484H57.6055V54.2491H58.6526ZM64.7669 60.1519C64.7669 59.9674 64.738 59.8047 64.6801 59.6636C64.6259 59.519 64.5282 59.3887 64.3872 59.273C64.2497 59.1573 64.058 59.0469 63.8121 58.9421C63.5697 58.8372 63.2623 58.7305 62.8898 58.622C62.4991 58.5062 62.1465 58.3778 61.8318 58.2368C61.5171 58.0921 61.2477 57.9275 61.0234 57.7431C60.7992 57.5586 60.6274 57.347 60.508 57.1083C60.3887 56.8696 60.329 56.5965 60.329 56.2891C60.329 55.9816 60.3923 55.6977 60.5189 55.4373C60.6455 55.1769 60.8263 54.9508 61.0614 54.7591C61.3001 54.5638 61.5841 54.4119 61.9132 54.3034C62.2423 54.1949 62.6094 54.1406 63.0145 54.1406C63.6077 54.1406 64.1105 54.2546 64.5228 54.4824C64.9387 54.7067 65.2552 55.0014 65.4722 55.3668C65.6892 55.7284 65.7977 56.1155 65.7977 56.5278H64.7561C64.7561 56.2312 64.6928 55.969 64.5662 55.7411C64.4396 55.5096 64.2479 55.3288 63.9911 55.1986C63.7343 55.0647 63.4088 54.9978 63.0145 54.9978C62.642 54.9978 62.3346 55.0539 62.0922 55.166C61.8499 55.2781 61.6691 55.43 61.5497 55.6217C61.434 55.8134 61.3761 56.0323 61.3761 56.2782C61.3761 56.4446 61.4104 56.5965 61.4792 56.7339C61.5515 56.8678 61.6618 56.9925 61.8101 57.1083C61.962 57.224 62.1537 57.3307 62.3852 57.4284C62.6203 57.526 62.9006 57.6201 63.2261 57.7105C63.6746 57.8371 64.0616 57.9782 64.3872 58.1337C64.7127 58.2892 64.9803 58.4646 65.1901 58.6599C65.4035 58.8516 65.5608 59.0705 65.6621 59.3164C65.767 59.5587 65.8194 59.8336 65.8194 60.1411C65.8194 60.463 65.7543 60.7541 65.6241 61.0145C65.4939 61.275 65.3077 61.4974 65.0653 61.6819C64.823 61.8663 64.5318 62.0092 64.1918 62.1105C63.8555 62.2081 63.4793 62.2569 63.0634 62.2569C62.6981 62.2569 62.3382 62.2063 61.9837 62.105C61.6329 62.0038 61.3128 61.8519 61.0234 61.6493C60.7377 61.4468 60.508 61.1972 60.3344 60.9006C60.1644 60.6004 60.0794 60.2532 60.0794 59.8589H61.1211C61.1211 60.1302 61.1735 60.3635 61.2784 60.5588C61.3833 60.7505 61.5262 60.9096 61.707 61.0362C61.8915 61.1628 62.0995 61.2569 62.3309 61.3184C62.566 61.3762 62.8102 61.4052 63.0634 61.4052C63.4287 61.4052 63.7379 61.3545 63.9911 61.2533C64.2443 61.152 64.436 61.0073 64.5662 60.8192C64.7 60.6311 64.7669 60.4087 64.7669 60.1519ZM70.0729 54.2491V62.1484H69.0421V54.2491H70.0729ZM72.612 54.2491V55.1063H66.5085V54.2491H72.612ZM76.2741 54.949L73.6591 62.1484H72.5903L75.6013 54.2491H76.2904L76.2741 54.949ZM78.4659 62.1484L75.8455 54.949L75.8292 54.2491H76.5182L79.5401 62.1484H78.4659ZM78.3303 59.2242V60.0814H73.8924V59.2242H78.3303ZM86.6745 54.2491V62.1484H85.622L81.6452 56.0558V62.1484H80.5981V54.2491H81.6452L85.6382 60.3581V54.2491H86.6745ZM91.286 54.2491V62.1484H90.2552V54.2491H91.286ZM93.8251 54.2491V55.1063H87.7216V54.2491H93.8251Z" fill="#FF5757"/>
<path d="M40.0111 67.949L37.3961 75.1484H36.3273L39.3383 67.2491H40.0273L40.0111 67.949ZM42.2029 75.1484L39.5825 67.949L39.5662 67.2491H40.2552L43.2771 75.1484H42.2029ZM42.0673 72.2242V73.0814H37.6293V72.2242H42.0673ZM47.2485 72.0506H45.138V71.1988H47.2485C47.6572 71.1988 47.9881 71.1337 48.2413 71.0035C48.4945 70.8733 48.679 70.6924 48.7947 70.4609C48.9141 70.2295 48.9737 69.9654 48.9737 69.6688C48.9737 69.3976 48.9141 69.1426 48.7947 68.9039C48.679 68.6651 48.4945 68.4735 48.2413 68.3288C47.9881 68.1805 47.6572 68.1063 47.2485 68.1063H45.3822V75.1484H44.3351V67.2491H47.2485C47.8453 67.2491 48.3498 67.3522 48.7622 67.5584C49.1745 67.7645 49.4873 68.0503 49.7007 68.4156C49.9141 68.7773 50.0208 69.1914 50.0208 69.658C50.0208 70.1644 49.9141 70.5966 49.7007 70.9546C49.4873 71.3127 49.1745 71.5858 48.7622 71.7739C48.3498 71.9583 47.8453 72.0506 47.2485 72.0506ZM54.258 72.0506H52.1476V71.1988H54.258C54.6667 71.1988 54.9977 71.1337 55.2509 71.0035C55.5041 70.8733 55.6885 70.6924 55.8043 70.4609C55.9236 70.2295 55.9833 69.9654 55.9833 69.6688C55.9833 69.3976 55.9236 69.1426 55.8043 68.9039C55.6885 68.6651 55.5041 68.4735 55.2509 68.3288C54.9977 68.1805 54.6667 68.1063 54.258 68.1063H52.3917V75.1484H51.3446V67.2491H54.258C54.8548 67.2491 55.3594 67.3522 55.7717 67.5584C56.184 67.7645 56.4969 68.0503 56.7103 68.4156C56.9237 68.7773 57.0304 69.1914 57.0304 69.658C57.0304 70.1644 56.9237 70.5966 56.7103 70.9546C56.4969 71.3127 56.184 71.5858 55.7717 71.7739C55.3594 71.9583 54.8548 72.0506 54.258 72.0506Z" fill="black"/>
<defs>
<filter id="filter0_d_6770_8973" x="1.90735e-06" y="0.555557" width="125" height="125" filterUnits="userSpaceOnUse" color-interpolation-filters="sRGB">
<feFlood flood-opacity="0" result="BackgroundImageFix"/>
<feColorMatrix in="SourceAlpha" type="matrix" values="0 0 0 0 0 0 0 0 0 0 0 0 0 0 0 0 0 0 127 0" result="hardAlpha"/>
<feOffset dy="5.55556"/>
<feGaussianBlur stdDeviation="12.5"/>
<feComposite in2="hardAlpha" operator="out"/>
<feColorMatrix type="matrix" values="0 0 0 0 0.0588235 0 0 0 0 0.0666667 0 0 0 0 0.0666667 0 0 0 0.1 0"/>
<feBlend mode="normal" in2="BackgroundImageFix" result="effect1_dropShadow_6770_8973"/>
<feBlend mode="normal" in="SourceGraphic" in2="effect1_dropShadow_6770_8973" result="shape"/>
</filter>
</defs>
</svg>