<svg width="26" height="26" viewBox="0 0 26 26" fill="none" xmlns="http://www.w3.org/2000/svg">
<path d="M21.6667 4.33203H4.33341C3.75878 4.33203 3.20768 4.5603 2.80135 4.96663C2.39502 5.37296 2.16675 5.92406 2.16675 6.4987V19.4987C2.16675 20.0733 2.39502 20.6244 2.80135 21.0308C3.20768 21.4371 3.75878 21.6654 4.33341 21.6654H21.6667C22.2414 21.6654 22.7925 21.4371 23.1988 21.0308C23.6051 20.6244 23.8334 20.0733 23.8334 19.4987V6.4987C23.8334 5.92406 23.6051 5.37296 23.1988 4.96663C22.7925 4.5603 22.2414 4.33203 21.6667 4.33203ZM16.2501 19.4987H4.33341V6.4987H16.2501V19.4987Z" fill="#007185"/>
</svg>