<?xml version="1.0" standalone="no"?><!DOCTYPE svg PUBLIC "-//W3C//DTD SVG 1.1//EN" "http://www.w3.org/Graphics/SVG/1.1/DTD/svg11.dtd"><svg t="1708912787906" class="icon" viewBox="0 0 1925 1024" version="1.1" xmlns="http://www.w3.org/2000/svg" p-id="13811" xmlns:xlink="http://www.w3.org/1999/xlink" width="375.9765625" height="200"><path d="M1155.066 867.157c278.186-18.176 534.186-116.992 770.26-220.33-161.834 110.165-983.04 529.237-988.586 244.181 1.067-35.2 15.53-73.813 44.33-115.84 25.473-40.875 62.038-81.792 98.604-126.08 56.576-66.987 196.18-222.592 243.84-319.147 8.874-18.133 14.42-35.2 16.64-49.92 5.546-86.314-101.974-120.405-261.547-165.845l-31.019 19.285 59.862 50.006c-269.398 48.853-431.147 99.968-627.328 170.41l27.733 71.51-98.688 98.816c16.64 3.413 188.416 62.464 365.781-64.726l1.067-1.152 2.219-2.261c-5.547-9.045-16.64-19.328-32.128-31.787 53.205 3.414 85.333 51.115 79.786 99.926H802.64c1.067-17.067-3.328-32.939-7.765-45.44-137.43 104.533-298.155 118.144-434.475 69.248V670.72c-67.627 23.85-182.87 98.816-182.87 170.368 4.438 35.2 21.035 47.701 37.675 56.747 150.742 87.466 558.635-31.787 557.483-31.787-146.261 77.227-291.456 138.581-506.453 147.627C-18.652 1008-59.612 813.824 72.27 611.669c127.445-204.501 328.021-386.176 648.277-502.058 93.184-34.091 229.547-71.552 361.43-74.966 189.44 0 373.46 57.942 361.258 245.334-8.874 144.213-206.165 341.845-312.576 487.253-46.506 62.464-54.272 105.6 24.406 99.925z m179.626-655.36c43.52 17.067 55.979 36.352 43.52 56.747 12.502-22.656 0-41.984-43.52-56.747z" p-id="13812" fill="#ffffff"></path></svg>