<?xml version="1.0" encoding="UTF-8"?>
<svg width="13px" height="13px" viewBox="0 0 13 13" version="1.1" xmlns="http://www.w3.org/2000/svg" xmlns:xlink="http://www.w3.org/1999/xlink">
    <!-- Generator: Sketch 55.2 (78181) - https://sketchapp.com -->
    <title>形状结合</title>
    <desc>Created with Sketch.</desc>
    <g id="页面1" stroke="none" stroke-width="1" fill="none" fill-rule="evenodd">
        <g id="亚马逊订单页-自动邀评" transform="translate(-523.000000, -115.000000)" fill="#FFFFFF" fill-rule="nonzero">
            <g id="手动邀评" transform="translate(513.000000, 107.000000)">
                <path d="M16.4856488,20.962098 C12.9088825,20.962098 10.0091995,18.0624151 10.0091995,14.4856488 C10.0091995,10.9088825 12.9088825,8.00919951 16.4856488,8.00919951 C20.0624151,8.00919951 22.962098,10.9088825 22.962098,14.4856488 C22.962098,18.0624151 20.0624151,20.962098 16.4856488,20.962098 Z M16.4856488,19.7845618 C19.4121576,19.7845618 21.7845617,17.4121576 21.7845617,14.4856488 C21.7845617,11.5591399 19.4121576,9.18673573 16.4856488,9.18673573 C14.5925295,9.18673573 12.8432151,10.1967028 11.8966554,11.8361922 C10.9500957,13.4756816 10.9500957,15.4956159 11.8966554,17.1351053 C12.8432151,18.7745947 14.5925295,19.7845618 16.4856488,19.7845618 Z M16.7258662,16.864272 C16.6128227,16.8036288 16.3584749,16.8036288 16.2454314,16.864272 L15.4558933,17.288185 C14.7517267,17.6661741 14.0510926,17.1998698 14.1335202,16.3991452 L14.2147702,15.6137285 C14.2300781,15.4659477 14.1346977,15.2015908 14.0263644,15.0967901 L13.4576144,14.5474694 C12.8817991,13.9910836 13.1143625,13.1756397 13.9050781,13.02256 L14.7823426,12.852406 C14.9318897,12.8235564 15.177406,12.6475147 15.2533571,12.5150419 L15.6813915,11.7702502 C16.0699785,11.0943444 16.9024966,11.0966995 17.289906,11.7702502 L17.7173517,12.5150419 C17.7950691,12.649281 18.0382303,12.8235564 18.1883662,12.852406 L19.0662194,13.02256 C19.8551687,13.175051 20.0947973,13.9857846 19.5136832,14.5474694 L18.945522,15.0967901 C18.8377774,15.201002 18.7412194,15.4641814 18.7565274,15.6137285 L18.8377774,16.3985564 C18.9202049,17.1922158 18.2207484,17.6667629 17.5154042,17.288185 L16.7258662,16.864272 Z M15.3581578,16.0040817 L15.687868,15.8268625 C16.1494622,15.5795799 16.8224241,15.5795799 17.2834296,15.8268625 L17.6131397,16.003493 L17.5848789,15.7350147 C17.5318897,15.2251415 17.7603318,14.6045799 18.1265455,14.2501415 L18.3078861,14.0752774 L17.965223,14.0087466 C17.4783118,13.9145437 16.9442991,13.5318444 16.6964278,13.1020437 L16.4856488,12.7346524 L16.2748698,13.1020437 C16.028176,13.5306669 15.4918082,13.9145437 15.0060745,14.0087466 L14.6634115,14.0752774 L14.8441633,14.2501415 C15.2133209,14.606935 15.4388191,15.2274966 15.3858299,15.7350147 L15.3581578,16.0040817 Z" id="形状结合"></path>
            </g>
        </g>
    </g>
</svg>