<svg xmlns="http://www.w3.org/2000/svg" width="27" height="25" viewBox="0 0 27 25">
  <defs>
    <style>
      .cls-1 {
        fill: #FF890F;
        fill-rule: evenodd;
      }
    </style>
  </defs>
  <path id="形状_4" data-name="形状 4" class="cls-1" d="M17.4,25a1.907,1.907,0,0,1-1.335-.542,4.618,4.618,0,0,0-2.681-1.582,4.926,4.926,0,0,0-2.528,1.377l-0.015.012-0.054.045-0.063.054-0.021.015-0.018.021a1.757,1.757,0,0,1-1.32.524,2.214,2.214,0,0,1-.7-0.152l-0.006,0a0.183,0.183,0,0,1-.024-0.012L5.414,23l-0.027-.015a1.758,1.758,0,0,1-.7-2.091l0-.006a3.985,3.985,0,0,0,.274-1.21A3.264,3.264,0,0,0,1.678,16.44H1.6A1.452,1.452,0,0,1,.292,15.111l0-.009V15.1l0-.018c0-.024-0.015-0.089-0.024-0.155V14.918A15.312,15.312,0,0,1,0,12.537a15.312,15.312,0,0,1,.262-2.38c0.006-.039.012-0.08,0.018-0.11l0.012-.068V9.972l0-.009A1.4,1.4,0,0,1,1.606,8.631H1.751A3.264,3.264,0,0,0,5.035,5.4a3.5,3.5,0,0,0-.325-1.308L4.691,4.046a1.647,1.647,0,0,1,.56-2.035l0.009-.006,3.465-1.85A0.106,0.106,0,0,0,8.747.146l0.027-.009A2.212,2.212,0,0,1,9.437,0a1.907,1.907,0,0,1,1.335.542A4.821,4.821,0,0,0,13.39,1.981,4.873,4.873,0,0,0,16.008.542,2.028,2.028,0,0,1,17.346,0a2.211,2.211,0,0,1,.7.152l0.009,0h0l0.006,0.006L21.378,2a1.614,1.614,0,0,1,.865,2.038l0,0.006a3.933,3.933,0,0,0-.274,1.21A3.264,3.264,0,0,0,25.25,8.491h0.144A1.452,1.452,0,0,1,26.7,9.82l0,0.009V9.835l0,0.018c0,0.027.015,0.092,0.027,0.161A15.358,15.358,0,0,1,27,12.394a14.68,14.68,0,0,1-.262,2.4l0,0.009c-0.012.06-.021,0.11-0.024,0.14l0,0.018v0.012A1.4,1.4,0,0,1,25.4,16.3H25.252a3.262,3.262,0,0,0-3.284,3.23v0l0,0.021a2.718,2.718,0,0,0,.244,1.26v0.057l0.045,0.045a1.654,1.654,0,0,1-.57,2l-0.024.018-3.378,1.838-0.006,0A1.866,1.866,0,0,1,17.4,25h0ZM13.24,21.07a5.159,5.159,0,0,1,2.868,1.076l0.012,0.009,0.012,0.006a5.366,5.366,0,0,1,1.115.81l0.145,0.137,2.959-1.591L20.272,21.3a4.861,4.861,0,0,1,1.115-5.127,5.194,5.194,0,0,1,3.155-1.57l0.208-.024,0.03-.205a14.154,14.154,0,0,0,.145-1.9,15.194,15.194,0,0,0-.157-1.743L24.761,10.7c-0.006-.039-0.009-0.077-0.012-0.1l-0.018-.22-0.223-.027A5.191,5.191,0,0,1,21.387,8.8a5.064,5.064,0,0,1-1.422-3.54,5.014,5.014,0,0,1,.316-1.624l0.075-.214L17.413,1.806l-0.148.131a7.813,7.813,0,0,1-.994.766l0,0a5.162,5.162,0,0,1-2.745,1.019,5.272,5.272,0,0,1-2.817-1.016l-0.039-.024a6.154,6.154,0,0,1-.961-0.8L9.557,1.734,6.475,3.42,6.553,3.638a4.97,4.97,0,0,1,.307,1.624A5.031,5.031,0,0,1,5.442,8.768a5.217,5.217,0,0,1-3.125,1.567l-0.2.024-0.033.2c-0.006.033-.009,0.066-0.012,0.1v0c0,0.018,0,.036-0.006.057l0,0.03A14.847,14.847,0,0,0,1.9,12.463a15.193,15.193,0,0,0,.157,1.743l0.006,0.033a0.882,0.882,0,0,1,.012.107L2.1,14.566,2.32,14.593a5.192,5.192,0,0,1,3.121,1.54,5.065,5.065,0,0,1,1.422,3.54,5.137,5.137,0,0,1-.3,1.633l-0.076.212L9.3,23.1l0.148-.149a6.173,6.173,0,0,1,.964-0.793l0.006,0a5.1,5.1,0,0,1,2.82-1.085h0Zm0.144-3.918a4.782,4.782,0,0,1-3.359-1.382,4.6,4.6,0,0,1,0-6.611,4.773,4.773,0,0,1,6.716,0,4.621,4.621,0,0,1,.024,6.605,4.729,4.729,0,0,1-3.381,1.385h0Zm0-7.493a2.816,2.816,0,1,0,2.86,2.815A2.842,2.842,0,0,0,13.384,9.659Z"/>
</svg>
