<?xml version="1.0" encoding="UTF-8"?>
<svg width="16px" height="16px" viewBox="0 0 16 16" version="1.1" xmlns="http://www.w3.org/2000/svg" xmlns:xlink="http://www.w3.org/1999/xlink">
    <!-- Generator: Sketch 55.2 (78181) - https://sketchapp.com -->
    <title>一键邀评</title>
    <desc>Created with Sketch.</desc>
    <g id="页面1" stroke="none" stroke-width="1" fill="none" fill-rule="evenodd">
        <g id="亚马逊订单页-自动邀评" transform="translate(-420.000000, -113.000000)" fill="#FFFFFF" fill-rule="nonzero">
            <g id="自动邀评" transform="translate(411.000000, 107.000000)">
                <path d="M24.1176215,14.500707 C24.0924016,14.8719343 23.7768662,15.1541289 23.4104736,15.1277757 C23.0505097,15.1018735 22.7790606,14.787589 22.7957263,14.4204434 L22.7965009,14.4072369 C23.0148696,11.1933279 20.5825622,8.39807854 17.3619585,8.16632716 C14.1419647,7.93461968 11.3563312,10.3534074 11.1379758,13.566697 C10.9196069,16.780609 13.3519174,19.5758715 16.5725168,19.8076226 C17.073663,19.8436811 17.5719287,19.8162254 18.0590028,19.7261956 C18.420798,19.6593392 18.7648813,19.9055198 18.8289495,20.27238 C18.8927625,20.6377346 18.6554011,20.988909 18.2951545,21.0555021 C17.6994416,21.165603 17.0905349,21.1991988 16.4793421,21.1552125 C12.5313712,20.8711128 9.54780188,17.4327701 9.81685545,13.4732401 C10.0859513,9.51307204 13.5065266,6.53459291 17.4551346,6.81873735 C21.4031002,7.10282034 24.3866752,10.5411746 24.1176215,14.500707 Z M23.7391636,16.3970903 C24.0267496,16.5070167 24.173451,16.8235227 24.0645708,17.1008432 C24.015098,17.2382157 23.9136135,17.3502989 23.7800186,17.4132688 L21.6733938,18.3750637 C21.5590326,18.4248793 21.4677247,18.5180116 21.4191442,18.6344019 L20.528128,20.7945826 C20.419442,21.0720479 20.0990877,21.2068115 19.8212941,21.0987768 C19.6724136,21.0417297 19.5606848,20.9177882 19.5042827,20.764202 L17.5120186,15.0803223 C17.4615416,14.9428831 17.4678479,14.7904516 17.5295151,14.6578794 C17.5914634,14.5245402 17.7041146,14.4218969 17.8174802,14.3840501 C17.9404329,14.3212932 18.0816302,14.3203197 18.2139926,14.3762277 L23.7391636,16.3970903 Z M20.0791127,18.4538467 L20.2191876,18.1142666 C20.3960513,17.6904497 20.7235872,17.3507241 21.1365465,17.1630561 L21.1480858,17.1578679 L21.5077008,16.9936855 L19.2819745,16.1796364 L20.0791127,18.4538467 Z M16.9672384,10.275791 C18.9638328,10.275791 20.5800473,11.9385933 20.5800473,13.986967 C20.5800473,14.3587678 20.2848793,14.6624462 19.9178916,14.6624462 C19.5566947,14.6624462 19.2641453,14.3679504 19.255887,14.0003928 L19.2557513,13.986967 C19.2557513,12.6821956 18.2298582,11.6267335 16.9672384,11.6267335 C15.7046185,11.6267335 14.6787254,12.6821956 14.6787254,13.986967 C14.6787254,15.2771917 15.6827971,16.3260875 16.927706,16.3468732 L16.9672384,16.3472004 C17.3342303,16.3472004 17.6293941,16.6508674 17.6293941,17.0226796 C17.6293941,17.3944794 17.3342269,17.6981429 16.9672384,17.6981429 C14.9706387,17.6981429 13.3544294,16.0353512 13.3544294,13.986967 C13.3544294,11.9385933 14.9706439,10.275791 16.9672384,10.275791 Z" id="一键邀评"></path>
            </g>
        </g>
    </g>
</svg>