<?xml version="1.0" encoding="UTF-8"?>
<svg width="14px" height="12px" viewBox="0 0 14 12" version="1.1" xmlns="http://www.w3.org/2000/svg" xmlns:xlink="http://www.w3.org/1999/xlink">
    <!-- Generator: Sketch 55.2 (78181) - https://sketchapp.com -->
    <title>邀评统计</title>
    <desc>Created with Sketch.</desc>
    <g id="页面1" stroke="none" stroke-width="1" fill="none" fill-rule="evenodd">
        <g id="亚马逊订单页-自动邀评" transform="translate(-645.000000, -115.000000)" fill="#FFFFFF" fill-rule="nonzero">
            <g id="邀评统计" transform="translate(635.000000, 107.000000)">
                <path d="M23.3346258,19.9633483 L10.6558222,19.9633483 C10.2932372,19.9633483 10,19.6657879 10,19.2986746 L10,8.66447921 C10,8.29738216 10.2932372,8 10.6558222,8 C11.0176717,8 11.3116445,8.29738216 11.3116445,8.66447921 L11.3116445,17.0832578 L11.3116445,18.6340172 L23.3346258,18.6340172 C23.6964753,18.6340172 23.9904641,18.9315776 23.9904641,19.2986746 C23.9904641,19.6657717 23.6964594,19.9633483 23.3346258,19.9633483 M21.8041128,17.9693597 L20.4924683,17.9693597 C20.1306188,17.9693597 19.8366461,17.6719775 19.8366461,17.3048805 L19.8366461,12.6524402 C19.8366461,12.2851487 20.1306188,11.9877828 20.4924683,11.9877828 L21.8041128,11.9877828 C22.1667138,11.9877828 22.459951,12.2851649 22.459951,12.6524402 L22.459951,17.3048805 C22.459951,17.6719775 22.1667138,17.9693597 21.8041128,17.9693597 M18.0880159,17.9693597 L16.7763715,17.9693597 C16.4141542,17.9693597 16.1205332,17.6719775 16.1205332,17.3048805 L16.1205332,9.99381036 C16.1205332,9.62671331 16.4141542,9.32915288 16.7763715,9.32915288 L18.0880159,9.32915288 C18.4502172,9.32915288 18.7438382,9.62671329 18.7438382,9.99381036 L18.7438382,17.3048805 C18.7438382,17.6719775 18.4502332,17.9693597 18.0880159,17.9693597 M14.3719191,17.9693597 L13.0602746,17.9693597 C12.6976896,17.9693597 12.4044524,17.6719775 12.4044524,17.3048805 L12.4044524,15.9755655 C12.4044524,15.6084847 12.6976896,15.3109081 13.0602746,15.3109081 L14.3719191,15.3109081 C14.7341364,15.3109081 15.0277573,15.6084685 15.0277573,15.9755655 L15.0277573,17.3048805 C15.0277573,17.6719775 14.7341364,17.9693597 14.3719191,17.9693597"></path>
            </g>
        </g>
    </g>
</svg>