<?xml version="1.0" encoding="utf-8"?>
<!-- Generator: Adobe Illustrator 23.0.1, SVG Export Plug-In . SVG Version: 6.00 Build 0)  -->
<svg version="1.1" id="组_7" xmlns="http://www.w3.org/2000/svg" xmlns:xlink="http://www.w3.org/1999/xlink" x="0px" y="0px"
	 viewBox="0 0 25.7 26.8" style="enable-background:new 0 0 25.7 26.8;" xml:space="preserve">
<style type="text/css">
	.st0{fill-rule:evenodd;clip-rule:evenodd;fill:#333333;}
	.st1{fill:#333333;}
</style>
<path id="形状_12" class="st0" d="M1.7,9.8h22.4V8H1.7V9.8z M9.2,15.2h7.3c0.5,0,0.9-0.4,0.9-0.9c0-0.5-0.4-0.9-0.9-0.9H9.2
	c-0.5,0-0.9,0.4-0.9,0.9S8.7,15.2,9.2,15.2z M9.2,19.6h4.3c0.5,0,0.9-0.4,0.9-0.9c0-0.5-0.4-0.9-0.9-0.9H9.2c-0.5,0-0.9,0.4-0.9,0.9
	C8.3,19.2,8.7,19.6,9.2,19.6C9.2,19.6,9.2,19.6,9.2,19.6z M20.5,4.4h-1.8c-0.5,0-0.9,0.4-0.9,0.9s0.4,0.9,0.9,0.9h1.8
	c0.5,0,0.9-0.4,0.9-0.9S21,4.4,20.5,4.4z"/>
<path class="st1" d="M19.9,26.8h-14c-3.3,0-5.9-2.6-5.9-5.9v-15C0,2.6,2.6,0,5.9,0h14c3.3,0,5.9,2.6,5.9,5.9v15
	C25.8,24.1,23.1,26.8,19.9,26.8z M5.9,1.8c-2.3,0-4.1,1.8-4.1,4.1v15c0,2.3,1.8,4.1,4.1,4.1h14c2.3,0,4.1-1.8,4.1-4.1v-15
	c0-2.3-1.8-4.1-4.1-4.1H5.9z"/>
</svg>
