<svg xmlns="http://www.w3.org/2000/svg" width="25" height="25" viewBox="0 0 25 25">
  <defs>
    <style>
      .cls-1 {
        fill: #FF890F;
        fill-rule: evenodd;
      }
    </style>
  </defs>
  <path id="形状_14" data-name="形状 14" class="cls-1" d="M12.5,25A12.5,12.5,0,1,1,25,12.5,12.514,12.514,0,0,1,12.5,25Zm0-23.238A10.738,10.738,0,1,0,23.238,12.5,10.75,10.75,0,0,0,12.5,1.762ZM9.534,18.849a3.673,3.673,0,0,1-3.791-3.532,3.413,3.413,0,0,1,.494-1.741A3.775,3.775,0,0,1,8.4,11.944a2.182,2.182,0,0,1,.629-0.1,0.881,0.881,0,0,1,0,1.762,0.191,0.191,0,0,0-.078.013l-0.017.006a1.958,1.958,0,0,0-1.2.866,1.54,1.54,0,0,0-.233.83,1.909,1.909,0,0,0,2.018,1.77,2.3,2.3,0,0,0,1.109-.29,1.729,1.729,0,0,0,.923-1.481V9.587a3.442,3.442,0,0,1,1.809-3,3.974,3.974,0,0,1,1.971-.519A3.673,3.673,0,0,1,19.127,9.6a3.414,3.414,0,0,1-.494,1.741,3.775,3.775,0,0,1-2.164,1.632,2.253,2.253,0,0,1-.629.1,0.881,0.881,0,1,1,0-1.762,0.191,0.191,0,0,0,.078-0.013,2.077,2.077,0,0,0,1.215-.874A1.554,1.554,0,0,0,17.365,9.6a1.915,1.915,0,0,0-2.029-1.77,2.3,2.3,0,0,0-1.109.29A1.729,1.729,0,0,0,13.3,9.6v5.713a3.435,3.435,0,0,1-1.809,3A3.758,3.758,0,0,1,9.534,18.849Z"/>
</svg>
