<?xml version="1.0" encoding="UTF-8" standalone="no"?>
<svg width="233px" height="60px" viewBox="0 0 233 60" version="1.1" xmlns="http://www.w3.org/2000/svg" xmlns:xlink="http://www.w3.org/1999/xlink" xmlns:sketch="http://www.bohemiancoding.com/sketch/ns">
    <!-- Generator: Sketch 3.5.2 (25235) - http://www.bohemiancoding.com/sketch -->
    <title>logo little</title>
    <desc>Created with Sketch.</desc>
    <defs></defs>
    <g id="Page-1" stroke="none" stroke-width="1" fill="none" fill-rule="evenodd" sketch:type="MSPage">
        <g id="logo-little" sketch:type="MSLayerGroup" transform="translate(-2.000000, -29.000000)">
            <path d="M20.9171317,72.5390625 C17.6274947,72.5390625 14.6078542,71.6538872 11.8581194,69.88351 C9.10838469,68.1131329 6.95508591,65.6836092 5.39815848,62.5948661 C3.84123105,59.5061229 3.06277902,56.0784229 3.06277902,52.3116629 L3.06277902,50.6166295 C3.06277902,46.8498696 3.8161197,43.3970581 5.32282366,40.2580915 C6.82952762,37.1191249 8.90121449,34.6707677 11.5379464,32.9129464 C14.1746784,31.1551251 17.0499286,30.2762277 20.1637835,30.2762277 C24.7090071,30.2762277 28.4254878,31.8959101 31.3133371,35.1353237 C34.2011863,38.3747372 35.6450893,42.631112 35.6450893,47.9045759 L35.6450893,50.0516183 L5.0968192,50.0516183 L5.0968192,52.2739955 C5.0968192,55.5887443 5.79365933,58.6586075 7.18736049,61.4836775 C8.58106166,64.3087474 10.5020804,66.5248246 12.9504743,68.1319754 C15.3988683,69.7391263 18.0543942,70.5426897 20.9171317,70.5426897 C23.6543106,70.5426897 25.9833888,70.0844075 27.9044364,69.1678292 C29.8254839,68.251251 31.5267783,66.8387372 33.0083705,64.9302455 L34.4397321,65.9472656 C31.4012125,70.3418188 26.8937241,72.5390625 20.9171317,72.5390625 L20.9171317,72.5390625 Z M70.3575813,62.3360941 C69.7635039,64.4500461 68.652547,66.1936602 67.0246976,67.5669643 C64.7029297,69.5256794 61.7551797,70.5050223 58.181359,70.5050223 C53.7809404,70.5050223 50.3226522,68.879062 47.8063907,65.6270926 C45.2901292,62.3751232 44.0320173,57.899024 44.0320173,52.1986607 L44.0320173,50.8803013 C44.0320173,45.0543794 45.2779735,40.5029461 47.7699233,37.225865 C50.2618731,33.9487838 53.7080056,32.3102679 58.1084243,32.3102679 C61.6962246,32.3102679 64.6395899,33.3716095 66.938604,35.494324 C67.0384523,35.5981239 67.1472459,35.7026924 67.2651917,35.8073318 C68.53233,37.0678258 69.4640745,38.553385 70.0604316,40.2640249 C70.361473,41.3280575 70.5119928,42.4994816 70.5119928,43.7783013 L70.5119928,49.7297522 C70.5119928,49.7297522 70.1304495,57.7792452 70.3575813,62.3360941 Z M71.1515932,65.2863636 C70.5124089,66.6574018 69.6133096,67.8758861 68.3922242,68.9418248 C65.6450015,71.3399952 62.2414138,72.5390625 58.181359,72.5390625 C53.2460829,72.5390625 49.3258792,70.6933778 46.4206304,67.0019531 C43.5153816,63.3105284 42.062779,58.3008129 42.062779,51.9726562 L42.062779,50.6166295 C42.062779,44.4391432 43.5153816,39.5047618 46.4206304,35.8133371 C49.3258792,32.1219123 53.2217715,30.2762277 58.1084243,30.2762277 C62.2900376,30.2762277 65.7422479,31.5694625 68.4651589,34.155971 C68.5693992,34.2549894 68.6712509,34.355259 68.7707536,34.4567798 C71.2144244,36.6411861 72.4728387,39.6729967 72.546033,43.5522968 L72.546033,63.0263482 C72.546033,67.4962366 72.897592,70.5347107 73.6007205,72.1418616 L73.6007205,72.4808683 L71.265341,72.4808683 C70.7631064,70.7481587 71.2653409,68.370389 71.2653409,65.1309755 C71.2259639,65.194963 71.1880643,65.2465697 71.1515932,65.2863636 Z M20.1637835,32.3102679 C16.1961297,32.3102679 12.831208,33.78556 10.0689174,36.7361886 C7.30662681,39.6868172 5.68694435,43.4472428 5.20982143,48.0175781 L33.6110491,48.0175781 L33.6110491,47.5279018 C33.6110491,44.7656112 33.0272101,42.197975 31.8595145,39.8249163 C30.6918189,37.4518576 29.0846922,35.6061729 27.0380859,34.2878069 C24.9914797,32.969441 22.7000685,32.3102679 20.1637835,32.3102679 Z" id="ea" stroke="#3F3F3F" fill="#333333" sketch:type="MSShapeGroup"></path>
            <path d="M138.327009,68.3454241 L138.590681,67.5920759 L152.678292,30.7533482 L154.938337,30.7533482 L136.70731,78.5909598 L135.803292,80.8510045 C133.844577,85.5971219 130.605212,87.9701451 126.0851,87.9701451 C124.62862,87.9701451 123.624166,87.8320326 123.071708,87.5558036 L123.03404,85.6347656 C123.837616,85.8607712 124.75418,85.9737723 125.783761,85.9737723 C127.918258,85.9737723 129.688609,85.3522663 131.094866,84.1092355 C132.501123,82.8662047 133.719024,80.8384627 134.748605,78.0259487 L137.234654,71.2834821 L121,30.7533482 L123.222377,30.7533482 L138.327009,68.3454241 Z M164.731864,40.2455357 C166.062786,37.0814574 168.021471,34.5828775 170.60798,32.749721 C173.194488,30.9165645 176.057183,30 179.19615,30 C183.565591,30 186.811234,31.2367343 188.933175,33.71024 C191.055117,36.1837456 192.128627,39.9190598 192.153739,44.9162946 L192.153739,71.5094866 L190.119699,71.5094866 L190.119699,44.8409598 C190.094587,40.4715183 189.203134,37.2384312 187.445312,35.1416016 C185.687491,33.0447719 182.900131,31.9963728 179.083147,31.9963728 C175.567505,31.9963728 172.522753,33.2456627 169.9488,35.7442801 C167.374848,38.2428975 165.635886,41.4634289 164.731864,45.405971 L164.731864,71.5094866 L162.697824,71.5094866 L162.697824,30.7533482 L164.731864,30.7533482 L164.731864,40.2455357 Z M218.746931,70.2287946 C222.438356,70.2287946 225.483107,69.2494518 227.881278,67.2907366 C230.279448,65.3320215 231.591517,62.619995 231.817522,59.1545759 L233.851562,59.1545759 C233.650669,63.0971179 232.131432,66.2674266 229.293806,68.6655971 C226.45618,71.0637676 222.94059,72.2628348 218.746931,72.2628348 C213.649249,72.2628348 209.600043,70.4171502 206.599191,66.7257254 C203.598339,63.0343007 202.097935,58.0245852 202.097935,51.6964286 L202.097935,50.3404018 C202.097935,44.1629155 203.598339,39.2285341 206.599191,35.5371094 C209.600043,31.8456847 213.624138,30 218.671596,30 C222.990814,30 226.556627,31.2932348 229.369141,33.8797433 C232.181655,36.4662518 233.67578,39.9065075 233.851562,44.2006138 L231.817522,44.2006138 C231.64174,40.5343009 230.354783,37.5899944 227.956613,35.367606 C225.558442,33.1452177 222.463468,32.0340402 218.671596,32.0340402 C214.126372,32.0340402 210.566838,33.6725562 207.992885,36.9496373 C205.418932,40.2267184 204.131975,44.7781517 204.131975,50.6040737 L204.131975,51.922433 C204.131975,57.6227964 205.431488,62.0988956 208.030552,65.350865 C210.629617,68.6028343 214.201707,70.2287946 218.746931,70.2287946 L218.746931,70.2287946 Z" id="ync" stroke="#3F3F3F" fill="#333333" sketch:type="MSShapeGroup"></path>
            <g id="favicon" transform="translate(98.000000, 51.000000) scale(1, -1) translate(-98.000000, -51.000000) translate(76.000000, 31.000000)" sketch:type="MSShapeGroup">
                <path d="M4.47188065,28.2068207 C5.59236174,30.7421374 7.21218175,32.992648 9.20149014,34.8242522 C12.6136696,37.965928 17.112926,39.8751335 22.04397,39.8751335 C32.7062372,39.8751335 41.3497125,30.9487809 41.3497125,19.9375668 C41.3497125,8.9263527 32.7062372,0 22.04397,0 C11.3817028,0 2.73822753,8.9263527 2.73822753,19.9375668 C2.73822753,22.8874627 3.35856978,25.6877281 4.47188065,28.2068207 Z" id="Oval-1" stroke-opacity="0.942425272" stroke="#333333" stroke-width="3"></path>
                <path d="M4.25352112,26.4999998 L40.5035211,13.9215686" id="Line" stroke-opacity="0.942425272" stroke="#333333" stroke-width="3" stroke-linecap="square"></path>
                <path d="M4.49999999,19.4999999 L14.9266295,15.5530042" id="Line" stroke-opacity="0.942425272" stroke="#333333" stroke-width="5" stroke-linecap="square"></path>
                <path d="M30.0592859,25.6410256 L39.4999998,21.5" id="Line" stroke-opacity="0.942425272" stroke="#333333" stroke-width="5" stroke-linecap="square"></path>
                <path d="M43.2919956,16.1884615 L43.2919956,18.2075164 C42.5444661,18.5943687 25.7896967,24.4288563 25.7896967,24.4288563 L24.810825,22.6932599 L43.2919956,16.1884615 Z" id="Rectangle-1" stroke="#FFFFFF" stroke-width="3" stroke-linecap="square" fill="#FFFFFF"></path>
                <path d="M20.4303456,15.1304691 L20.8532443,16.3422385 L0.589687377,24.8057644 L0.0266159473,23.1637714 L20.4303456,15.1304691 Z" id="Rectangle-1" stroke="#FFFFFF" stroke-width="3" stroke-linecap="square" fill="#FFFFFF"></path>
            </g>
        </g>
    </g>
</svg>