<?xml version="1.0" encoding="utf-8"?>
<!-- Generator: Adobe Illustrator 12.0.0, SVG Export Plug-In . SVG Version: 6.00 Build 51448)  -->
<!DOCTYPE svg PUBLIC "-//W3C//DTD SVG 1.1//EN" "http://www.w3.org/Graphics/SVG/1.1/DTD/svg11.dtd" [
	<!ENTITY ns_svg "http://www.w3.org/2000/svg">
	<!ENTITY ns_xlink "http://www.w3.org/1999/xlink">
]>
<svg  version="1.1" id="Layer_1" xmlns="&ns_svg;" xmlns:xlink="&ns_xlink;" width="1051.697" height="121.017"
	 viewBox="0 0 1051.697 121.017" overflow="visible" enable-background="new 0 0 1051.697 121.017" xml:space="preserve">
<path fill="none" stroke="#00c853" stroke-width="22" stroke-linecap="round" d="M928.167,11.001h33.031
	c0,0,24.317-0.356,23.442,25.144"/>
<line fill="none" stroke="#00c853" stroke-width="22" stroke-linecap="round" x1="927.681" y1="44.516" x2="927.681" y2="11.484"/>
<line fill="none" stroke="#00c853" stroke-width="22" stroke-linecap="round" x1="1040.697" y1="44.517" x2="1040.697" y2="11.485"/>
<line fill="none" stroke="#00c853" stroke-width="22" stroke-linecap="round" x1="1007.183" y1="11" x2="1040.213" y2="11"/>
<line fill="none" stroke="#00c853" stroke-width="22" stroke-linecap="round" x1="927.183" y1="76.5" x2="927.183" y2="109.531"/>
<line fill="none" stroke="#00c853" stroke-width="22" stroke-linecap="round" x1="960.697" y1="110.017" x2="927.666" y2="110.017"/>
<path fill="none" stroke="#00c853" stroke-width="22" stroke-linecap="round" d="M1039.712,108.016h-33.031
	c0,0-23.416-2.746-22.041-29.496"/>
<line fill="none" stroke="#00c853" stroke-width="22" stroke-linecap="round" x1="1040.198" y1="74.501" x2="1040.198" y2="107.532"/>
<path fill="none" stroke="#000000" d="M903.14,17.812"/>
<line fill="none" stroke="#00c853" stroke-width="22" stroke-linecap="round" x1="984.64" y1="36.145" x2="984.64" y2="78.52"/>
<g>
	<path fill="#00c853" d="M0,96.364l6.6-14.64c7.08,5.16,17.64,8.76,27.72,8.76c11.52,0,16.2-3.84,16.2-9
		c0-15.72-48.84-4.92-48.84-36.12c0-14.28,11.52-26.16,35.4-26.16c10.56,0,21.36,2.52,29.16,7.44l-6,14.76
		c-7.8-4.44-15.84-6.6-23.28-6.6c-11.52,0-15.96,4.32-15.96,9.6c0,15.479,48.84,4.8,48.84,35.64c0,14.04-11.64,26.041-35.641,26.041
		C20.88,106.085,7.44,102.125,0,96.364z"/>
	<path fill="#00c853" d="M77.038,72.364c0-19.44,15-33.24,36-33.24c13.56,0,24.24,5.88,28.92,16.44l-14.52,7.8
		c-3.48-6.12-8.641-8.88-14.521-8.88c-9.48,0-16.92,6.6-16.92,17.88s7.44,17.88,16.92,17.88c5.88,0,11.04-2.64,14.521-8.88
		l14.52,7.92c-4.68,10.32-15.36,16.32-28.92,16.32C92.039,105.604,77.038,91.805,77.038,72.364z"/>
	<path fill="#00c853" d="M209.877,67.805v36.84h-17.521v-8.04c-3.479,5.88-10.2,9-19.68,9c-15.12,0-24.12-8.4-24.12-19.561
		c0-11.399,8.04-19.319,27.72-19.319h14.88c0-8.04-4.8-12.72-14.88-12.72c-6.84,0-13.92,2.28-18.6,6l-6.721-13.08
		c7.08-5.04,17.521-7.8,27.841-7.8C198.477,39.124,209.877,48.244,209.877,67.805z M191.157,84.244v-6.6h-12.84
		c-8.76,0-11.521,3.24-11.521,7.56c0,4.681,3.961,7.801,10.561,7.801C183.597,93.005,188.997,90.124,191.157,84.244z"/>
	<path fill="#00c853" d="M292.796,67.685v36.96h-18.721v-34.08c0-10.44-4.8-15.24-13.08-15.24c-9,0-15.479,5.52-15.479,17.4v31.92
		h-18.721V40.084h17.881v7.56c5.04-5.52,12.6-8.52,21.359-8.52C281.276,39.124,292.796,48.004,292.796,67.685z"/>
	<path fill="#00c853" d="M314.035,68.765V20.644h8.88v47.76c0,19.92,9.36,29.04,25.681,29.04c16.439,0,25.8-9.12,25.8-29.04v-47.76
		h8.641v48.121c0,24.12-12.961,36.6-34.44,36.6C327.115,105.364,314.035,92.885,314.035,68.765z"/>
	<path fill="#00c853" d="M466.075,68.044v36.601h-8.521v-35.76c0-13.321-6.96-20.161-18.96-20.161c-13.561,0-22.08,8.4-22.08,22.8
		v33.12h-8.521V41.524h8.16v11.64c4.561-7.68,13.08-12.12,24-12.12C455.514,41.044,466.075,49.924,466.075,68.044z"/>
	<path fill="#00c853" d="M489.232,15.604h8.521v89.041h-8.521V15.604z"/>
	<path fill="#00c853" d="M519.592,21.604c0-3.24,2.76-6,6.24-6c3.479,0,6.24,2.64,6.24,5.88c0,3.48-2.641,6.24-6.24,6.24
		C522.352,27.724,519.592,24.964,519.592,21.604z M521.512,41.524h8.521v63.121h-8.521V41.524z"/>
	<path fill="#00c853" d="M657.953,68.044v36.601h-8.521v-35.76c0-13.321-6.72-20.161-18.12-20.161c-12.96,0-21.12,8.4-21.12,22.8
		v33.12h-8.52v-35.76c0-13.321-6.721-20.161-18.24-20.161c-12.84,0-21.12,8.4-21.12,22.8v33.12h-8.521V41.524h8.16v11.52
		c4.44-7.56,12.601-12,23.16-12c10.44,0,18.601,4.44,22.44,13.32c4.56-8.16,13.56-13.32,24.96-13.32
		C647.873,41.044,657.953,49.924,657.953,68.044z"/>
	<path fill="#00c853" d="M679.19,21.604c0-3.24,2.76-6,6.24-6c3.479,0,6.24,2.64,6.24,5.88c0,3.48-2.641,6.24-6.24,6.24
		C681.95,27.724,679.19,24.964,679.19,21.604z M681.11,41.524h8.521v63.121h-8.521V41.524z"/>
	<path fill="#00c853" d="M746.63,100.805c-3.359,3-8.399,4.439-13.32,4.439c-11.88,0-18.479-6.72-18.479-18.359V48.724h-11.28v-7.2
		h11.28v-13.8h8.52v13.8h19.2v7.2h-19.2v37.68c0,7.44,3.841,11.521,10.92,11.521c3.48,0,6.961-1.08,9.36-3.24L746.63,100.805z"/>
	<path fill="#00c853" d="M814.791,75.725H761.99c0.96,13.2,11.04,21.96,24.84,21.96c7.681,0,14.521-2.76,19.32-8.28l4.8,5.521
		c-5.64,6.72-14.399,10.319-24.359,10.319c-19.681,0-33.12-13.439-33.12-32.16c0-18.72,13.08-32.04,30.84-32.04
		s30.601,13.08,30.601,32.04C814.911,73.805,814.791,74.765,814.791,75.725z M761.99,69.364h44.761c-1.08-12.36-10.08-21-22.44-21
		C772.07,48.364,763.07,57.004,761.99,69.364z"/>
	<path fill="#00c853" d="M889.909,15.604v89.041h-8.16v-12.48c-5.16,8.521-13.92,13.08-24.36,13.08c-18,0-31.439-13.08-31.439-32.16
		c0-19.08,13.439-32.04,31.439-32.04c10.08,0,18.721,4.32,24,12.48v-37.92H889.909z M881.508,73.084c0-14.76-10.08-24.6-23.399-24.6
		c-13.44,0-23.521,9.84-23.521,24.6c0,14.761,10.08,24.601,23.521,24.601C871.428,97.685,881.508,87.845,881.508,73.084z"/>
</g>
</svg>
