<?xml version="1.0"?>
<svg xmlns="http://www.w3.org/2000/svg" xmlns:xlink="http://www.w3.org/1999/xlink" version="1.1" viewBox="0 0 224 224" width="512px" height="512px"><g transform="translate(-16.8,-16.8) scale(1.15,1.15)"><g fill="none" fill-rule="nonzero" stroke="none" stroke-width="1" stroke-linecap="butt" stroke-linejoin="miter" stroke-miterlimit="10" stroke-dasharray="" stroke-dashoffset="0" font-family="none" font-weight="none" font-size="none" text-anchor="none" style="mix-blend-mode: normal"><path d="M0,224v-224h224v224z" fill="none"/><g fill="#fff"><path d="M78.4,14.93333c-35.04853,0 -63.46667,28.41813 -63.46667,63.46667c0,31.30773 22.6856,57.25615 52.5,62.46041c0.66453,-11.07307 3.59928,-21.52429 8.38542,-30.88749c-12.50667,-2.7104 -20.2783,-9.96789 -23.07083,-21.16042h-7.39375v-7.43749h6.31458c-0.0896,-0.95573 -0.14583,-1.9222 -0.14583,-2.975c0,-0.8288 0.0427,-1.666 0.0875,-2.45h-6.25625v-7.39375h7.27708c3.41227,-14.70187 15.176,-22.96875 35,-22.96875c3.27787,0 6.61022,0.35338 8.61875,0.83125v12.8625c-2.27733,-0.39573 -4.85648,-0.56875 -8.26875,-0.56875c-8.92267,0 -15.26887,3.45975 -18.375,9.84375h23.23125v7.39375h-25.2c-0.0896,0.784 -0.14583,1.62225 -0.14583,2.40625c0,1.0528 0.04807,2.05554 0.175,3.01875h25.15625v6.35833c12.84267,-11.7152 29.55038,-19.18747 48.02291,-20.3c-5.1968,-29.80693 -31.1381,-52.5 -62.44583,-52.5zM179.2,14.93333l-22.4,22.4l22.4,22.4v-14.93333h22.4v-14.93333h-22.4zM145.6,82.13333c-35.04853,0 -63.46667,28.41813 -63.46667,63.46667c0,35.04853 28.41813,63.46667 63.46667,63.46667c35.04853,0 63.46667,-28.41813 63.46667,-63.46667c0,-35.04853 -28.41813,-63.46667 -63.46667,-63.46667zM69.94167,88.8125c2.56853,4.9952 7.33997,7.97744 13.67917,8.89584c2.44907,-3.16587 5.12377,-6.14064 8.02084,-8.89584zM141.86667,104.53333h7.46667v7.72916c12.8352,1.26933 21.49023,8.85512 21.72916,19.61458h-14.97708c-0.35093,-4.50987 -4.63505,-7.64166 -10.33959,-7.64166c-5.70453,0 -9.45,2.7006 -9.45,6.94166c0,3.48693 2.82497,5.51799 9.5375,6.83959l8.225,1.58959c12.5888,2.43413 18.24375,8.141 18.24375,18.25833c0,12.21547 -8.63275,19.9003 -22.96875,21.0875v7.71458h-7.46667v-7.68542c-14,-1.0752 -22.72235,-8.32393 -22.96875,-19.65833h15.45834c0.39573,4.6368 5.04163,7.59792 11.75416,7.59792c6.05547,0 10.20834,-2.9204 10.20834,-7.11667c0,-3.53173 -2.78962,-5.44192 -10.07708,-6.89792l-8.38542,-1.67709c-11.66293,-2.21013 -17.675,-8.56601 -17.675,-18.59375c0,-11.424 8.44702,-19.16297 21.68542,-20.3875zM44.8,156.8v14.93333h-22.4v14.93333h22.4v14.93333l22.4,-22.4z"/></g></g></g></svg>
